<svg width="100%" viewBox="0 0 908 717" fill="none" xmlns="http://www.w3.org/2000/svg">
<path d="M713.732 687.145C641.505 706.398 569.579 704.164 498.686 680.467C458.329 666.976 427.401 634.301 416.343 593.473C396.92 521.741 399.138 450.341 422.973 379.965C436.544 339.902 469.451 309.21 510.556 298.248C582.795 278.996 654.709 281.229 725.602 304.926C765.947 318.417 796.887 351.092 807.933 391.908C827.356 463.627 825.138 535.04 801.303 605.416C787.733 645.467 754.837 676.172 713.72 687.133L713.732 687.145Z" fill="white"></path>
<path d="M698.761 269.694C655.877 293.516 609.743 303.615 560.829 299.888C532.983 297.766 508.066 281.925 494.489 257.712C470.638 215.17 460.613 169.374 464.511 120.766C466.73 93.0949 482.758 68.2906 507.162 54.7305C550.054 30.9071 596.18 20.8097 645.094 24.5361C672.932 26.6599 697.857 42.4995 711.424 66.7067C735.273 109.24 745.3 155.045 741.403 203.652C739.182 231.316 723.164 256.126 698.751 269.688L698.761 269.694Z" fill="white"></path>
<path d="M348 432.092C301.375 447.342 254.163 448.503 206.845 435.562C179.908 428.194 158.45 407.912 149.714 381.562C134.37 335.267 133.218 288.401 146.269 241.416C153.7 214.669 174.143 193.357 200.677 184.674C247.31 169.424 294.515 168.263 341.833 181.204C368.762 188.572 390.228 208.854 398.955 235.196C414.299 281.483 415.451 328.358 402.4 375.342C394.97 402.082 374.534 423.401 347.992 432.084L348 432.092Z" fill="white"></path>
<path d="M316 701.092C269.375 716.342 222.163 717.503 174.845 704.562C147.908 697.194 126.45 676.912 117.714 650.562C102.37 604.267 101.218 557.401 114.269 510.416C121.7 483.669 142.143 462.357 168.677 453.674C215.31 438.423 262.515 437.263 309.833 450.204C336.762 457.572 358.228 477.854 366.955 504.196C382.299 550.483 383.451 597.358 370.4 644.342C362.97 671.081 342.534 692.401 315.992 701.084L316 701.092Z" fill="white"></path>
<path d="M124.255 481.759C97.1829 490.613 69.77 491.287 42.2959 483.773C26.6555 479.495 14.1964 467.719 9.12421 452.42C0.214986 425.54 -0.453972 398.327 7.12383 371.047C11.4381 355.517 23.3082 343.142 38.7148 338.101C65.7912 329.246 93.1994 328.572 120.674 336.086C136.309 340.364 148.773 352.141 153.84 367.435C162.75 394.311 163.419 421.528 155.841 448.808C151.526 464.334 139.661 476.713 124.25 481.754L124.255 481.759Z" fill="white"></path>
<path d="M876.943 511.067C861.849 513.66 847.215 511.874 833.188 505.727C825.203 502.228 819.497 494.989 817.996 486.454C815.36 471.458 817.133 456.931 823.298 443.012C826.808 435.088 834.09 429.435 842.68 427.958C857.776 425.366 872.408 427.152 886.435 433.299C894.417 436.798 900.126 444.037 901.625 452.569C904.261 467.562 902.488 482.092 896.323 496.011C892.813 503.932 885.533 509.589 876.941 511.065L876.943 511.067Z" fill="white"></path>
</svg>