<svg width="120" height="41" viewBox="0 0 120 41" fill="none" xmlns="http://www.w3.org/2000/svg">
<g clip-path="url(#clip0_615_19774)">
<path d="M110.135 0.605599H9.53468C9.16798 0.605599 8.80568 0.605599 8.43995 0.607599C8.1338 0.609599 7.83009 0.615409 7.521 0.620299C6.84951 0.628201 6.17961 0.687275 5.5171 0.797009C4.85552 0.909131 4.21467 1.12051 3.61622 1.42401C3.0185 1.73007 2.47235 2.12777 1.99757 2.60267C1.5203 3.07624 1.12246 3.62362 0.81935 4.22376C0.5154 4.82271 0.304641 5.46454 0.19435 6.12708C0.0830109 6.78878 0.0230984 7.45812 0.01515 8.12908C0.00587 8.43568 0.00489 8.7433 0 9.04994V32.1642C0.00489 32.4747 0.00587 32.7755 0.01515 33.0861C0.0231008 33.757 0.0830134 34.4263 0.19435 35.088C0.304336 35.7509 0.515108 36.3931 0.81935 36.9923C1.12233 37.5905 1.52022 38.1357 1.99757 38.6066C2.47054 39.0836 3.01705 39.4816 3.61622 39.7853C4.21467 40.0896 4.85545 40.3022 5.5171 40.4161C6.17972 40.525 6.84956 40.5841 7.521 40.5929C7.83009 40.5997 8.1338 40.6036 8.43995 40.6036C8.80567 40.6056 9.168 40.6056 9.53468 40.6056H110.135C110.494 40.6056 110.859 40.6056 111.219 40.6036C111.523 40.6036 111.836 40.5997 112.141 40.5929C112.811 40.5845 113.479 40.5254 114.141 40.4161C114.804 40.3014 115.448 40.0889 116.049 39.7853C116.647 39.4814 117.193 39.0834 117.666 38.6066C118.142 38.1338 118.541 37.5891 118.848 36.9923C119.15 36.3927 119.358 35.7505 119.467 35.088C119.578 34.4262 119.64 33.7571 119.652 33.0861C119.656 32.7755 119.656 32.4747 119.656 32.1642C119.664 31.8009 119.664 31.4396 119.664 31.0704V10.1417C119.664 9.77552 119.664 9.41224 119.656 9.04994C119.656 8.7433 119.656 8.43568 119.652 8.12904C119.64 7.45802 119.578 6.78883 119.467 6.12704C119.358 5.46488 119.149 4.8231 118.848 4.22372C118.23 3.02079 117.252 2.04162 116.049 1.42392C115.448 1.12117 114.804 0.909839 114.141 0.796919C113.48 0.686702 112.811 0.627607 112.141 0.620159C111.836 0.615279 111.523 0.609419 111.219 0.607469C110.859 0.605469 110.494 0.605599 110.135 0.605599Z" fill="#A6A6A6"/>
<path d="M8.44487 39.7305C8.14019 39.7305 7.84287 39.7266 7.54058 39.7198C6.91436 39.7116 6.2896 39.6571 5.67144 39.5567C5.09503 39.4574 4.53664 39.2727 4.0147 39.0088C3.49754 38.747 3.02585 38.4037 2.6177 37.9922C2.20364 37.5854 1.85891 37.1137 1.59719 36.5957C1.33258 36.0743 1.14945 35.5154 1.05419 34.9385C0.951311 34.3186 0.895651 33.6918 0.887687 33.0635C0.881347 32.8526 0.873047 32.1504 0.873047 32.1504V9.04981C0.873047 9.04981 0.881887 8.3584 0.887737 8.15527C0.895363 7.52795 0.950699 6.90212 1.05327 6.2832C1.14871 5.70472 1.33197 5.14422 1.59673 4.6211C1.85749 4.10341 2.2003 3.63133 2.61187 3.22315C3.02297 2.81109 3.49617 2.46607 4.01421 2.20068C4.53495 1.93756 5.09228 1.7542 5.66753 1.65674C6.28772 1.5553 6.91465 1.50046 7.54304 1.49268L8.44536 1.48047H111.214L112.127 1.49317C112.75 1.50057 113.371 1.55492 113.985 1.65576C114.566 1.75444 115.13 1.93908 115.656 2.20361C116.694 2.73845 117.539 3.58463 118.071 4.62354C118.332 5.14305 118.512 5.69898 118.607 6.27246C118.71 6.89646 118.768 7.52721 118.78 8.15967C118.783 8.44287 118.783 8.74707 118.783 9.04981C118.791 9.42481 118.791 9.78174 118.791 10.1416V31.0703C118.791 31.4336 118.791 31.7881 118.783 32.1455C118.783 32.4707 118.783 32.7686 118.779 33.0752C118.768 33.6963 118.711 34.3158 118.608 34.9287C118.515 35.5097 118.333 36.073 118.068 36.5987C117.805 37.1111 117.462 37.5787 117.053 37.9844C116.644 38.3982 116.172 38.7434 115.653 39.0069C115.128 39.2729 114.566 39.4582 113.985 39.5567C113.367 39.6576 112.742 39.7121 112.116 39.7198C111.823 39.7266 111.517 39.7305 111.219 39.7305L110.135 39.7325L8.44487 39.7305Z" fill="black"/>
<path d="M24.769 20.9063C24.7797 20.0716 25.0014 19.2532 25.4135 18.5273C25.8255 17.8013 26.4145 17.1914 27.1256 16.7542C26.6738 16.1091 26.0779 15.5781 25.385 15.2036C24.6922 14.829 23.9216 14.6212 23.1344 14.5965C21.4552 14.4203 19.8272 15.6014 18.9715 15.6014C18.0992 15.6014 16.7817 14.614 15.363 14.6432C14.4453 14.6729 13.551 14.9397 12.7671 15.4178C11.9832 15.8959 11.3365 16.5688 10.8901 17.3711C8.95607 20.7195 10.3987 25.6406 12.2513 28.3472C13.1782 29.6725 14.2615 31.153 15.6789 31.1005C17.066 31.043 17.584 30.216 19.2583 30.216C20.9171 30.216 21.4031 31.1005 22.8493 31.0671C24.3377 31.0429 25.2754 29.7359 26.1698 28.398C26.8358 27.4536 27.3483 26.4099 27.6882 25.3055C26.8235 24.9397 26.0856 24.3276 25.5665 23.5453C25.0474 22.763 24.77 21.8452 24.769 20.9063Z" fill="white"/>
<path d="M22.0373 12.8163C22.8489 11.8421 23.2487 10.5899 23.1518 9.32568C21.912 9.4559 20.7668 10.0485 19.9443 10.9853C19.5421 11.443 19.2341 11.9754 19.0379 12.5522C18.8416 13.1289 18.761 13.7387 18.8006 14.3467C19.4207 14.3531 20.0342 14.2187 20.5949 13.9536C21.1555 13.6885 21.6487 13.2996 22.0373 12.8163Z" fill="white"/>
<path d="M42.3025 27.7451H37.5691L36.4324 31.1016H34.4275L38.9109 18.6836H40.9939L45.4773 31.1016H43.4382L42.3025 27.7451ZM38.0593 26.1963H41.8113L39.9617 20.749H39.91L38.0593 26.1963Z" fill="white"/>
<path d="M55.1599 26.5754C55.1599 29.3889 53.6541 31.1965 51.3816 31.1965C50.806 31.2266 50.2335 31.094 49.7297 30.8139C49.2259 30.5337 48.8112 30.1174 48.533 29.6125H48.49V34.0969H46.6316V22.0481H48.4305V23.5539H48.4646C48.7556 23.0515 49.1773 22.6373 49.6849 22.3554C50.1926 22.0736 50.7671 21.9346 51.3474 21.9533C53.6453 21.9533 55.1599 23.7697 55.1599 26.5754ZM53.2498 26.5754C53.2498 24.7424 52.3025 23.5373 50.8572 23.5373C49.4373 23.5373 48.4822 24.7678 48.4822 26.5754C48.4822 28.3996 49.4373 29.6213 50.8572 29.6213C52.3025 29.6213 53.2498 28.425 53.2498 26.5754Z" fill="white"/>
<path d="M65.1248 26.5754C65.1248 29.3889 63.6189 31.1965 61.3465 31.1965C60.7708 31.2266 60.1983 31.094 59.6945 30.8139C59.1907 30.5337 58.776 30.1174 58.4978 29.6125H58.4548V34.0969H56.5964V22.0481H58.3953V23.5539H58.4294C58.7204 23.0514 59.1421 22.6373 59.6498 22.3554C60.1574 22.0736 60.7319 21.9346 61.3123 21.9533C63.6101 21.9533 65.1248 23.7697 65.1248 26.5754ZM63.2146 26.5754C63.2146 24.7424 62.2674 23.5373 60.822 23.5373C59.4021 23.5373 58.447 24.7678 58.447 26.5754C58.447 28.3996 59.4021 29.6213 60.822 29.6213C62.2674 29.6213 63.2146 28.425 63.2146 26.5754Z" fill="white"/>
<path d="M71.7107 27.6417C71.8484 28.8731 73.0447 29.6817 74.6795 29.6817C76.2459 29.6817 77.3728 28.8731 77.3728 27.7627C77.3728 26.7988 76.6931 26.2217 75.0838 25.8262L73.4744 25.4385C71.1941 24.8877 70.1355 23.8213 70.1355 22.0908C70.1355 19.9482 72.0027 18.4766 74.6541 18.4766C77.2781 18.4766 79.0769 19.9482 79.1375 22.0908H77.2615C77.1492 20.8516 76.1248 20.1035 74.6277 20.1035C73.1306 20.1035 72.1062 20.8604 72.1062 21.9619C72.1062 22.8399 72.7605 23.3565 74.3611 23.7519L75.7292 24.0879C78.2771 24.6904 79.3357 25.7139 79.3357 27.5302C79.3357 29.8535 77.4851 31.3086 74.5417 31.3086C71.7878 31.3086 69.9285 29.8877 69.8083 27.6416L71.7107 27.6417Z" fill="white"/>
<path d="M83.3464 19.9053V22.0479H85.0681V23.5195H83.3464V28.5107C83.3464 29.2861 83.6912 29.6475 84.448 29.6475C84.6524 29.6439 84.8564 29.6295 85.0593 29.6045V31.0674C84.719 31.1309 84.3732 31.1597 84.0271 31.1533C82.1941 31.1533 81.4792 30.4648 81.4792 28.709V23.5195H80.1628V22.0479H81.4792V19.9053H83.3464Z" fill="white"/>
<path d="M86.0652 26.5752C86.0652 23.7266 87.7429 21.9365 90.3591 21.9365C92.9841 21.9365 94.6541 23.7265 94.6541 26.5752C94.6541 29.4316 92.9929 31.2139 90.3591 31.2139C87.7263 31.2139 86.0652 29.4316 86.0652 26.5752ZM92.7605 26.5752C92.7605 24.6211 91.865 23.4678 90.3591 23.4678C88.8533 23.4678 87.9587 24.6299 87.9587 26.5752C87.9587 28.5371 88.8533 29.6816 90.3591 29.6816C91.865 29.6816 92.7605 28.5371 92.7605 26.5752Z" fill="white"/>
<path d="M96.1863 22.048H97.9587V23.589H98.0017C98.1217 23.1077 98.4036 22.6824 98.8002 22.3845C99.1968 22.0866 99.6838 21.9343 100.179 21.9532C100.394 21.9525 100.607 21.9757 100.816 22.0226V23.7609C100.546 23.6782 100.264 23.6403 99.9812 23.6486C99.7112 23.6376 99.4421 23.6852 99.1922 23.7881C98.9424 23.891 98.7178 24.0467 98.5338 24.2446C98.3498 24.4425 98.2108 24.6779 98.1264 24.9345C98.042 25.1912 98.0141 25.4631 98.0447 25.7316V31.1017H96.1863L96.1863 22.048Z" fill="white"/>
<path d="M109.385 28.4424C109.135 30.0859 107.534 31.2139 105.486 31.2139C102.852 31.2139 101.218 29.4492 101.218 26.6182C101.218 23.7783 102.861 21.9365 105.408 21.9365C107.913 21.9365 109.488 23.6572 109.488 26.4023V27.0391H103.094V27.1514C103.064 27.4846 103.106 27.8202 103.216 28.1361C103.326 28.4519 103.502 28.7407 103.733 28.9832C103.963 29.2258 104.242 29.4166 104.552 29.5429C104.862 29.6692 105.195 29.7281 105.529 29.7158C105.968 29.757 106.409 29.6553 106.786 29.4258C107.162 29.1964 107.455 28.8515 107.62 28.4424L109.385 28.4424ZM103.102 25.7402H107.629C107.645 25.4406 107.6 25.1408 107.495 24.8596C107.391 24.5784 107.229 24.3219 107.02 24.1061C106.812 23.8903 106.561 23.72 106.284 23.6058C106.006 23.4916 105.708 23.4359 105.408 23.4424C105.105 23.4406 104.805 23.4987 104.525 23.6135C104.245 23.7282 103.991 23.8973 103.776 24.1109C103.562 24.3245 103.392 24.5785 103.276 24.8582C103.161 25.1378 103.102 25.4376 103.102 25.7402Z" fill="white"/>
<path d="M37.8262 9.33636C38.2158 9.3084 38.6067 9.36726 38.9709 9.50869C39.335 9.65013 39.6632 9.87061 39.9317 10.1542C40.2003 10.4379 40.4026 10.7776 40.524 11.1488C40.6454 11.5201 40.6829 11.9137 40.6338 12.3012C40.6338 14.2075 39.6035 15.3032 37.8262 15.3032H35.6709V9.33636H37.8262ZM36.5976 14.4594H37.7226C38.0011 14.476 38.2797 14.4304 38.5382 14.3257C38.7967 14.2211 39.0287 14.0602 39.2172 13.8546C39.4057 13.649 39.546 13.404 39.6278 13.1374C39.7097 12.8708 39.7311 12.5893 39.6904 12.3134C39.7281 12.0385 39.7046 11.7588 39.6215 11.4941C39.5383 11.2294 39.3977 10.9864 39.2096 10.7825C39.0216 10.5786 38.7907 10.4188 38.5337 10.3145C38.2766 10.2103 37.9996 10.1642 37.7226 10.1796H36.5976V14.4594Z" fill="white"/>
<path d="M41.6807 13.0498C41.6524 12.7538 41.6862 12.4553 41.7801 12.1732C41.8739 11.8911 42.0257 11.6318 42.2256 11.4118C42.4256 11.1918 42.6693 11.0161 42.9411 10.8958C43.213 10.7755 43.507 10.7134 43.8042 10.7134C44.1015 10.7134 44.3955 10.7755 44.6673 10.8958C44.9392 11.0161 45.1829 11.1918 45.3828 11.4118C45.5828 11.6318 45.7345 11.8911 45.8284 12.1732C45.9222 12.4553 45.9561 12.7538 45.9278 13.0498C45.9566 13.346 45.9232 13.645 45.8296 13.9275C45.736 14.21 45.5843 14.4698 45.3843 14.6902C45.1843 14.9107 44.9404 15.0868 44.6683 15.2073C44.3962 15.3279 44.1019 15.3901 43.8042 15.3901C43.5066 15.3901 43.2123 15.3279 42.9402 15.2073C42.668 15.0868 42.4241 14.9107 42.2241 14.6902C42.0242 14.4698 41.8725 14.21 41.7789 13.9275C41.6853 13.645 41.6519 13.346 41.6807 13.0498ZM45.0137 13.0498C45.0137 12.0737 44.5752 11.5029 43.8057 11.5029C43.0332 11.5029 42.5987 12.0737 42.5987 13.0498C42.5987 14.0337 43.0333 14.6001 43.8057 14.6001C44.5752 14.6 45.0137 14.0297 45.0137 13.0498Z" fill="white"/>
<path d="M51.5732 15.3032H50.6514L49.7207 11.9868H49.6504L48.7236 15.3032H47.8105L46.5693 10.8003H47.4707L48.2773 14.2363H48.3438L49.2695 10.8003H50.1221L51.0479 14.2363H51.1182L51.9209 10.8003H52.8096L51.5732 15.3032Z" fill="white"/>
<path d="M53.8535 10.8003H54.709V11.5157H54.7754C54.888 11.2587 55.0781 11.0434 55.3189 10.8996C55.5598 10.7558 55.8395 10.6907 56.1191 10.7134C56.3382 10.6969 56.5582 10.73 56.7628 10.8101C56.9674 10.8902 57.1514 11.0153 57.3011 11.1761C57.4508 11.337 57.5623 11.5294 57.6275 11.7392C57.6927 11.9491 57.7099 12.1709 57.6777 12.3882V15.3032H56.7891V12.6114C56.7891 11.8877 56.4746 11.5279 55.8174 11.5279C55.6686 11.5209 55.5201 11.5463 55.3821 11.6021C55.244 11.6579 55.1197 11.7429 55.0175 11.8513C54.9154 11.9597 54.8379 12.0889 54.7904 12.23C54.7429 12.3712 54.7264 12.5209 54.7422 12.669V15.3033H53.8535L53.8535 10.8003Z" fill="white"/>
<path d="M59.0938 9.04248H59.9824V15.3032H59.0938V9.04248Z" fill="white"/>
<path d="M61.2178 13.0498C61.1895 12.7539 61.2234 12.4553 61.3172 12.1732C61.4111 11.8912 61.5629 11.6318 61.7628 11.4118C61.9628 11.1918 62.2065 11.0161 62.4784 10.8958C62.7503 10.7755 63.0443 10.7134 63.3416 10.7134C63.6389 10.7134 63.9329 10.7755 64.2047 10.8958C64.4766 11.0161 64.7203 11.1918 64.9203 11.4118C65.1203 11.6318 65.272 11.8912 65.3659 12.1732C65.4598 12.4553 65.4936 12.7539 65.4653 13.0498C65.4942 13.3461 65.4607 13.6451 65.3671 13.9276C65.2734 14.2101 65.1217 14.4699 64.9217 14.6903C64.7217 14.9107 64.4778 15.0869 64.2057 15.2074C63.9335 15.3279 63.6392 15.3902 63.3416 15.3902C63.0439 15.3902 62.7496 15.3279 62.4775 15.2074C62.2053 15.0869 61.9614 14.9107 61.7614 14.6903C61.5614 14.4699 61.4097 14.2101 61.3161 13.9276C61.2225 13.6451 61.189 13.3461 61.2178 13.0498ZM64.5508 13.0498C64.5508 12.0738 64.1123 11.503 63.3428 11.503C62.5703 11.503 62.1358 12.0738 62.1358 13.0499C62.1358 14.0337 62.5704 14.6001 63.3428 14.6001C64.1123 14.6001 64.5508 14.0298 64.5508 13.0498Z" fill="white"/>
<path d="M66.4009 14.0298C66.4009 13.2192 67.0044 12.7519 68.0757 12.6855L69.2954 12.6152V12.2266C69.2954 11.751 68.981 11.4824 68.3735 11.4824C67.8774 11.4824 67.5337 11.6645 67.4351 11.9829H66.5747C66.6655 11.2095 67.3931 10.7134 68.4146 10.7134C69.5435 10.7134 70.1802 11.2754 70.1802 12.2266V15.3032H69.3247V14.6704H69.2544C69.1117 14.8974 68.9113 15.0825 68.6737 15.2067C68.436 15.3309 68.1697 15.3898 67.9019 15.3774C67.7128 15.3971 67.5218 15.3769 67.341 15.3182C67.1602 15.2595 66.9938 15.1636 66.8524 15.0366C66.711 14.9096 66.5977 14.7544 66.52 14.581C66.4422 14.4076 66.4016 14.2198 66.4009 14.0298ZM69.2954 13.645V13.2685L68.1958 13.3389C67.5757 13.3804 67.2944 13.5913 67.2944 13.9883C67.2944 14.3935 67.646 14.6294 68.1294 14.6294C68.2711 14.6437 68.4142 14.6294 68.5502 14.5873C68.6862 14.5452 68.8123 14.4762 68.9211 14.3844C69.0299 14.2925 69.1191 14.1797 69.1834 14.0527C69.2477 13.9257 69.2858 13.7871 69.2954 13.645Z" fill="white"/>
<path d="M71.3481 13.0498C71.3481 11.627 72.0796 10.7256 73.2173 10.7256C73.4987 10.7126 73.778 10.78 74.0225 10.9199C74.267 11.0598 74.4667 11.2664 74.5981 11.5156H74.6646V9.04248H75.5532V15.3032H74.7017V14.5918H74.6314C74.4897 14.8393 74.2831 15.0433 74.0339 15.1818C73.7846 15.3203 73.5022 15.3879 73.2173 15.3774C72.0718 15.3775 71.3481 14.4761 71.3481 13.0498ZM72.2661 13.0498C72.2661 14.0049 72.7163 14.5796 73.4693 14.5796C74.2183 14.5796 74.6812 13.9966 74.6812 13.0537C74.6812 12.1152 74.2134 11.5239 73.4693 11.5239C72.7212 11.5239 72.2661 12.1025 72.2661 13.0498Z" fill="white"/>
<path d="M79.23 13.0498C79.2017 12.7538 79.2356 12.4553 79.3294 12.1732C79.4232 11.8911 79.575 11.6318 79.7749 11.4118C79.9749 11.1918 80.2186 11.0161 80.4904 10.8958C80.7623 10.7755 81.0563 10.7134 81.3536 10.7134C81.6508 10.7134 81.9448 10.7755 82.2167 10.8958C82.4885 11.0161 82.7322 11.1918 82.9322 11.4118C83.1321 11.6318 83.2839 11.8911 83.3777 12.1732C83.4715 12.4553 83.5054 12.7538 83.4771 13.0498C83.5059 13.346 83.4725 13.645 83.3789 13.9275C83.2853 14.21 83.1336 14.4698 82.9336 14.6902C82.7336 14.9107 82.4897 15.0868 82.2176 15.2073C81.9455 15.3279 81.6512 15.3901 81.3536 15.3901C81.0559 15.3901 80.7616 15.3279 80.4895 15.2073C80.2173 15.0868 79.9735 14.9107 79.7735 14.6902C79.5735 14.4698 79.4218 14.21 79.3282 13.9275C79.2346 13.645 79.2012 13.346 79.23 13.0498ZM82.563 13.0498C82.563 12.0737 82.1245 11.5029 81.355 11.5029C80.5826 11.5029 80.148 12.0737 80.148 13.0498C80.148 14.0337 80.5826 14.6001 81.355 14.6001C82.1245 14.6 82.563 14.0297 82.563 13.0498Z" fill="white"/>
<path d="M84.6694 10.8003H85.5249V11.5157H85.5913C85.704 11.2587 85.894 11.0434 86.1348 10.8996C86.3757 10.7558 86.6555 10.6907 86.9351 10.7134C87.1542 10.6969 87.3742 10.73 87.5788 10.8101C87.7834 10.8902 87.9673 11.0153 88.117 11.1761C88.2667 11.337 88.3783 11.5294 88.4435 11.7392C88.5087 11.9491 88.5258 12.1709 88.4937 12.3882V15.3032H87.605V12.6114C87.605 11.8877 87.2905 11.5279 86.6333 11.5279C86.4846 11.5209 86.336 11.5463 86.198 11.6021C86.0599 11.6579 85.9356 11.7429 85.8335 11.8513C85.7313 11.9597 85.6539 12.0889 85.6063 12.23C85.5588 12.3712 85.5423 12.5209 85.5581 12.669V15.3033H84.6694V10.8003Z" fill="white"/>
<path d="M93.5151 9.6792V10.8208H94.4907V11.5693H93.5151V13.8848C93.5151 14.3564 93.7095 14.563 94.1519 14.563C94.2651 14.5626 94.3783 14.5558 94.4907 14.5425V15.2827C94.3311 15.3113 94.1694 15.3264 94.0073 15.3281C93.019 15.3281 92.6255 14.9805 92.6255 14.1123V11.5693H91.9106V10.8208H92.6255V9.6792H93.5151Z" fill="white"/>
<path d="M95.7046 9.04248H96.5854V11.5239H96.6558C96.7739 11.2646 96.9691 11.048 97.2148 10.9037C97.4605 10.7593 97.7447 10.6942 98.0288 10.7173C98.2467 10.7054 98.4646 10.7418 98.6669 10.8239C98.8692 10.9059 99.0508 11.0316 99.199 11.1919C99.3471 11.3523 99.458 11.5433 99.5238 11.7514C99.5896 11.9596 99.6086 12.1797 99.5795 12.396V15.3032H98.69V12.6152C98.69 11.896 98.355 11.5317 97.7271 11.5317C97.5743 11.5192 97.4207 11.5402 97.2769 11.5933C97.1332 11.6463 97.0027 11.7301 96.8947 11.8389C96.7867 11.9476 96.7038 12.0786 96.6517 12.2228C96.5997 12.3669 96.5797 12.5207 96.5933 12.6733V15.3032H95.7046L95.7046 9.04248Z" fill="white"/>
<path d="M104.761 14.0875C104.64 14.499 104.379 14.855 104.022 15.0931C103.665 15.3313 103.236 15.4364 102.81 15.3902C102.513 15.398 102.218 15.3412 101.946 15.2237C101.673 15.1062 101.43 14.9307 101.232 14.7096C101.034 14.4885 100.887 14.2269 100.8 13.9431C100.713 13.6593 100.689 13.36 100.73 13.066C100.69 12.7711 100.715 12.4712 100.801 12.1865C100.888 11.9018 101.034 11.6391 101.231 11.416C101.428 11.1929 101.671 11.0147 101.942 10.8935C102.214 10.7723 102.509 10.7109 102.806 10.7135C104.059 10.7135 104.815 11.5695 104.815 12.9835V13.2935H101.635V13.3433C101.621 13.5086 101.642 13.6749 101.696 13.8317C101.75 13.9884 101.837 14.1321 101.949 14.2536C102.062 14.375 102.199 14.4716 102.352 14.537C102.504 14.6024 102.669 14.6352 102.834 14.6333C103.047 14.6589 103.262 14.6206 103.453 14.5234C103.644 14.4262 103.801 14.2744 103.906 14.0874L104.761 14.0875ZM101.635 12.6363H103.91C103.921 12.4852 103.9 12.3334 103.849 12.1907C103.798 12.0479 103.718 11.9175 103.614 11.8076C103.509 11.6977 103.383 11.6109 103.243 11.5528C103.103 11.4946 102.953 11.4663 102.801 11.4698C102.647 11.4679 102.495 11.4967 102.353 11.5547C102.21 11.6126 102.081 11.6985 101.972 11.8072C101.864 11.9159 101.778 12.0453 101.72 12.1877C101.662 12.3301 101.633 12.4826 101.635 12.6363Z" fill="white"/>
</g>
<defs>
<clipPath id="clip0_615_19774">
<rect width="119.664" height="40" fill="white" transform="translate(0 0.605469)"/>
</clipPath>
</defs>
</svg>
