<svg width="206" height="212" viewBox="0 0 206 212" fill="none" xmlns="http://www.w3.org/2000/svg">
<path d="M205.069 75.5705C204.99 75.4985 205.054 74.916 205.181 74.7377C205.596 74.1809 205.525 73.3554 205.27 72.9979C204.786 72.3135 204.613 71.885 205.112 71.1532C205.336 70.8314 205.152 70.3842 204.862 70.0813C204.388 69.5845 205.001 69.4737 205.024 69.128C204.869 68.9319 204.697 68.7175 204.531 68.5028C205.058 67.8337 205.14 67.1006 204.637 66.2813C203.962 65.1892 203.526 63.969 203.607 62.5739C203.674 61.4588 202.711 60.7843 202.893 59.6542C202.539 59.2068 202.19 58.759 201.82 58.2869L201.582 55.1109C200.74 54.7584 201.215 53.5675 200.746 52.9469C200.482 52.5966 200.364 52.0602 200.117 51.6827C199.848 51.2743 199.524 50.9025 199.183 50.6165C198.934 50.4144 198.611 50.3801 198.326 50.2651L198.116 47.4571C197.922 47.2703 197.616 47.066 197.403 46.7509C197.151 46.3737 197.05 45.7971 196.77 45.4999C196.258 44.9539 195.988 44.1887 195.587 43.5696C195.093 42.8081 195.514 41.8808 195.079 41.1928C194.475 40.1928 193.57 39.6567 193.017 38.4907C192.516 37.4376 191.634 36.6856 190.922 35.8041C190.938 35.1668 190.785 34.8082 190.226 34.863C189.989 34.8807 189.915 34.5357 189.809 34.2255C189.596 33.5858 189.266 33.0068 188.983 32.4048C188.307 32.5851 187.996 31.797 187.569 31.355C187.048 30.8162 186.571 30.2093 186.063 29.65C185.946 29.5224 185.787 29.4045 185.651 29.4017C184.678 29.377 185.221 28.2589 184.847 27.6182C184.304 27.0421 183.666 26.3693 183.028 25.6964C182.446 25.8373 182.204 25.1284 181.823 24.7739C181.437 24.4132 180.872 24.5918 180.587 23.9575C179.902 24.2164 179.912 23.4367 179.656 22.943C179.389 22.4177 178.912 22.0833 178.562 21.6226C178.207 21.1558 177.772 21 177.337 20.76C176.927 20.5374 176.513 20.0621 176.564 19.2598C176.579 19.0055 176.359 18.4637 176.297 18.4749C175.612 18.5975 175.306 17.8284 174.876 17.3932C174.161 16.6676 173.825 16.4591 172.564 16.0924C172.346 16.0308 172.12 15.9309 171.928 15.7764C171.526 15.4624 171.295 14.7072 170.7 14.9399C170.494 14.5204 170.31 14.0733 170.077 13.6818C169.939 13.4519 169.723 13.2993 169.559 13.1233C169.391 13.3371 169.24 13.5301 169.094 13.7163C168.743 13.3141 168.43 12.9545 168.127 12.6071C167.57 12.5644 166.906 12.7763 166.511 12.4228C166.017 11.9859 165.467 12.3581 165.177 12.0487C164.717 11.5572 164.139 11.6199 163.708 11.1069C163.372 10.7101 163.383 11.631 162.973 11.4734C162.365 10.7528 161.684 9.95341 161.013 9.16616L159.593 9.27228C158.976 8.74071 158.563 7.70696 157.686 8.12303C157.204 7.7761 156.711 7.61172 156.154 7.51049C155.662 7.42393 155.188 6.85572 154.615 7.05432C153.899 6.44569 153.105 6.08313 152.323 5.6872C151.792 5.41525 151.799 4.52547 151.271 4.03259C151.246 4.73553 151.227 5.32765 151.203 5.97859C151.014 5.84993 150.846 5.81056 150.788 5.68506C150.402 4.88297 149.681 4.91739 149.174 4.43598C148.715 4.00296 148.246 4.36254 147.778 4.33263C147.377 4.30413 146.975 4.37964 146.579 4.40923C146.324 4.11671 146.052 3.8579 145.829 3.53702C145.486 3.03689 144.952 3.04431 144.728 3.28829C143.857 4.24268 142.807 3.96416 141.817 4.10952C141.524 4.1509 141.194 4.2859 140.976 3.8413C141.104 3.60453 141.233 3.37423 141.361 3.14392C141.276 3.04641 141.213 2.90837 141.15 2.91306C140.669 2.91652 140.163 2.8375 139.719 3.00699C139.152 3.21813 138.903 2.41885 138.417 2.40976C137.906 2.39601 137.53 2.62536 137.232 3.12795C137.105 2.98168 136.973 2.84224 136.855 2.69525C136.351 2.05783 135.865 1.47098 135.311 2.56401C135.243 2.69888 134.775 2.67544 134.692 2.53238C134.361 1.94043 133.752 2.30402 133.433 1.73716C133.181 1.28863 132.83 1.60045 132.528 1.5841C132.396 1.57447 132.22 1.69147 132.139 1.83389C131.757 2.51799 131.389 2.40268 130.954 1.84449C130.728 1.5498 130.441 1.14934 130.183 1.14265C129.877 1.13311 129.573 1.48687 129.282 1.6839C128.947 1.29996 128.639 0.946488 128.331 0.593018C128.168 0.819395 128.019 1.23297 127.849 1.23269C127.311 1.24048 126.741 1.67255 126.228 1.11368C125.604 0.426826 125.45 2.00275 124.868 1.50093C124.749 1.39949 124.5 1.51545 124.428 1.3975C123.879 0.542766 123.211 0.969141 122.619 1.0329C121.949 1.10889 121.144 0.727684 120.656 1.73784C120.601 1.85227 120.117 1.80408 120.037 1.64775C119.753 1.09128 119.246 1.4602 118.978 1.05184C118.66 0.562811 118.514 0.820381 118.287 1.16191C118.046 1.51743 117.735 1.44334 117.461 1.0938C117.097 0.634203 116.795 0.689218 116.46 1.14269C115.913 1.89107 115.339 1.67437 114.785 0.962734C114.631 1.17548 114.482 1.38786 114.328 1.60061C114.149 1.41276 113.965 1.22528 113.596 0.837415C113.398 1.37797 113.201 1.91853 113.012 2.44546C112.606 2.03872 112.262 2.0298 111.98 2.41869C111.801 2.23085 111.617 2.04337 111.422 1.83725C110.958 1.8719 110.469 2.01235 109.996 1.9179C109.286 1.77622 108.836 2.32909 108.317 2.71845C108.124 2.86272 107.971 3.08837 107.777 3.23264C107.419 3.49963 107.335 2.77236 107.026 2.80191C106.554 2.85019 106.13 2.89486 105.684 2.38294C105.482 2.15136 104.911 2.30441 104.596 2.51615C104.338 2.69129 104.178 3.09268 103.81 3.04229C103.128 2.95044 102.377 3.55187 101.787 2.55084L99.7058 2.70639C99.5116 3.0974 99.2547 3.62292 99.0311 4.07455L94.1342 4.44053C93.9082 4.79497 93.6981 5.10278 93.5049 5.44178C93.4706 5.50277 93.5155 5.64871 93.5237 5.75845C93.8555 5.71418 94.0361 5.92139 94.0549 6.36788C94.2896 6.32438 94.5069 6.37305 94.4682 6.76541C94.4566 6.87014 94.2282 6.93265 94.1137 7.15542C94.0355 7.40794 93.906 7.62533 93.8654 7.6024C93.5588 7.39812 93.7428 7.19612 93.8911 7.03574C93.936 6.98694 94.0307 7.01882 94.1031 7.0134L94.0549 6.36788C93.7231 6.41215 93.5425 6.20494 93.5237 5.75845L89.7182 6.04286C89.5564 6.41197 89.3236 6.93569 89.1038 7.43896C88.2032 6.62995 88.1482 6.6081 87.7971 7.17312C87.2981 7.96988 86.821 8.79748 86.1346 9.9458C85.7778 9.26492 85.4939 8.71491 85.279 8.30903C84.1219 8.42148 84.1591 8.52905 83.1705 9.0768C82.6996 9.33918 82.3982 10.1796 81.7492 9.87759C81.0099 9.53688 80.7292 10.6549 80.071 10.6846C79.1901 10.7245 78.2856 11.4217 77.5505 12.4374C77.225 12.8901 76.9188 13.0169 76.5571 12.5311C76.319 12.2048 76.2292 12.4323 76.038 12.6023C75.2874 13.2816 74.5287 13.9809 73.3412 13.6218C72.7631 14.5283 72.1589 15.4758 71.4982 16.5118C71.2973 16.4879 70.9167 16.5942 70.6927 16.3903C70.2706 16.0064 70.033 15.7515 70.0648 16.6969C70.0769 17.053 69.9455 17.2446 69.6524 17.2859C69.3496 17.328 68.9029 17.329 68.7995 17.5704C68.5585 18.1142 67.8583 17.842 67.8636 18.3024C67.8717 19.3859 67.4235 19.4324 66.8271 19.4445C66.3616 19.4533 66.4866 19.9568 66.434 20.3567C66.4093 20.5468 66.0882 20.798 65.9206 20.765C65.6646 20.7193 65.4213 20.4518 65.0885 20.2235C64.8914 21.16 64.3394 21.5064 63.7551 21.8097C63.7362 21.8176 62.5582 23.6648 62.5553 23.691C62.5041 23.9804 62.4829 24.2806 62.4012 24.5528C62.3505 24.7189 62.2293 24.9162 62.1115 24.964C61.5826 25.1658 61.1031 24.8576 60.5507 24.4834C60.0194 25.367 59.4838 26.2574 58.9525 27.141C58.4005 26.5785 58.3957 26.5789 58.2474 27.1937C58.2252 27.2862 58.2928 27.4759 58.2609 27.5042C57.8378 27.8864 57.4157 28.5411 56.969 28.542C56.12 28.5535 56.8047 29.9824 56.0668 29.9856C55.4361 29.9938 55.3438 30.9679 54.8932 31.3067C54.7102 31.1321 54.532 30.9572 54.3171 30.746C54.0828 31.6399 54.4444 32.7748 53.6437 33.302C52.7441 32.6357 52.7228 32.6113 52.3253 33.2707C51.9839 33.835 51.6907 34.4606 51.6443 34.5549C50.5582 35.1619 49.774 34.6752 49.1727 35.2719C49.1195 35.925 49.3754 36.555 48.9755 37.1172C48.6814 37.5352 48.3858 37.739 47.9618 37.7188C47.1626 37.6811 46.5835 37.9906 46.5115 39.2358C46.4907 39.6073 46.2033 39.9209 46.1347 40.3025C46.0531 40.7695 46.3679 41.3432 45.9839 41.7289C45.7802 41.5364 45.5971 41.232 45.39 41.1891C45.2021 41.1447 44.824 41.3482 44.8109 41.4985C44.7679 42.0275 44.807 42.4206 44.256 42.5851C43.7759 42.7248 43.3157 43.1941 42.9679 43.6745C42.6912 44.0652 41.961 43.7173 42.0628 44.7548C42.114 45.3092 41.534 45.7355 41.7237 46.4549C41.8043 46.7539 41.8106 47.0975 41.7956 47.4167C41.7893 47.5924 41.6599 47.7449 41.5893 47.906C41.2204 47.2585 41.0708 46.3609 40.4281 46.0779C40.0132 45.9855 39.8693 46.3987 39.6307 46.6503C39.4148 46.8806 39.1149 46.9614 38.8821 47.0957C38.8512 47.9159 39.1892 48.6696 38.8607 49.3433C38.3826 49.7036 38.1136 49.2238 37.7896 48.8521C37.4375 49.4042 36.8575 49.8954 36.7928 50.5234C36.7058 51.3089 36.5015 51.5643 36.0012 51.6926C35.9249 51.7113 35.8959 52.038 35.8664 52.2285C35.8495 52.3271 35.8475 52.496 35.8895 52.5383C35.989 52.6348 36.1976 52.762 36.2194 52.7279C36.6627 51.9677 37.1829 51.9743 37.8536 52.437C37.461 52.7714 37.4097 53.4503 36.9152 53.4613C36.4303 53.4716 36.3636 54.1387 36.0661 54.4466C35.787 54.7401 35.6933 55.3053 35.29 55.4328C35.2161 55.2241 35.1109 55.0502 35.0969 54.863C35.0675 54.4693 34.8675 54.1986 34.6425 54.3063C34.1649 54.5432 33.6819 54.839 33.2907 55.2577C33.1062 55.4532 33.1366 55.9897 33.0709 56.3452L31.8105 56.4394C31.8322 56.7298 31.9196 57.0544 31.8558 57.3058C31.8027 57.5045 31.5733 57.619 31.764 58.3513C31.4023 57.476 31.3149 57.1515 31.3792 56.9065C31.4323 56.7078 31.6617 56.5933 31.811 56.4458L31.6903 54.832C31.9946 54.3549 32.283 53.8595 32.608 53.4003C33.0958 52.7147 33.2654 51.7997 33.3031 50.94C33.3471 49.9695 33.5442 49.4225 34.2435 49.0976C34.8815 48.7968 35.178 48.0866 34.9931 47.1072C34.9198 46.7102 35.083 46.4903 35.338 46.4583C35.7036 46.4115 35.9639 46.2557 35.8548 45.7056C35.7153 45.0085 36.0606 44.5607 36.1881 43.993C36.3823 43.1476 36.5635 42.5173 37.3144 42.3639C37.6158 42.3024 37.3719 41.9636 37.2367 41.714C36.8389 41.0038 36.8394 40.5558 37.2595 40.5244C38.095 40.462 38.0753 39.0289 38.919 39.0113C39.4236 39.006 39.0972 38.1476 39.3435 37.7397C40.0226 36.6244 40.9011 35.7084 41.3218 34.3202C41.7426 32.9321 42.6423 32.0405 43.2895 30.8886C43.6199 30.3057 43.9971 29.7647 44.3535 29.2057C44.61 28.8036 44.9235 28.4491 45.1031 27.9943C45.2707 27.5728 45.1621 26.9642 45.5316 26.6445C45.4351 25.6131 45.9074 25.4999 46.5226 25.4799C46.8375 25.4694 47.4427 24.5348 47.8223 23.8314C48.2324 23.0802 48.6893 22.3709 49.0945 21.6201C49.1544 21.5118 49.081 21.1797 48.9926 21.037C48.9096 20.9004 48.6865 20.7743 48.5884 20.8271C48.3228 20.9767 48.0891 21.2279 47.8152 21.4626C47.3613 20.7824 47.7603 19.2986 46.6612 19.0821C46.5057 19.5352 46.0194 19.7208 46.1019 20.3703C46.1555 20.7622 45.9971 20.9169 45.7474 21.0199C44.6511 21.4697 43.7358 22.2608 43.0013 23.3932C43.3311 24.1021 43.6705 24.8102 44.18 25.6485C44.2186 25.6456 44.2582 25.6556 44.279 25.6736C44.3779 25.7635 44.4567 25.9069 44.3021 25.8536C44.4861 26.106 44.419 26.2473 44.3987 26.2358C44.2866 26.1663 44.178 26.0771 44.092 25.9667C44.065 25.9297 44.0544 25.8526 44.0592 25.7873C43.6652 25.7129 43.3913 25.8827 43.1711 25.5356C42.7757 24.9226 42.2985 25.2309 41.8542 25.1992C41.2346 26.0699 40.7752 27.1363 39.8741 27.6191C39.6592 27.7325 39.2892 28.1107 39.4427 28.6055C39.6986 29.4303 39.1172 29.9022 39.091 30.5922C39.7169 30.6493 40.338 30.3173 41.2816 30.7271C40.8527 31.0318 40.5851 31.2205 40.179 31.5041C40.2302 31.5392 40.0013 31.2707 39.754 31.2113C39.4329 31.1379 39.1035 31.2144 39.0857 30.5861C38.7979 30.6985 38.4232 30.4279 38.2097 30.8853C37.9247 31.4908 37.2911 31.8497 37.3214 32.6459C37.3663 33.7655 36.2962 33.0925 36.2309 33.9737C36.2087 34.261 36.0193 34.5218 36.0159 34.8012C36.0067 35.3277 36.0806 35.8609 36.1167 36.3451C35.7637 36.8193 35.2248 36.7558 34.9601 37.3727C34.6915 38.003 34.2631 38.5089 33.9072 39.0743C34.2495 39.4966 34.5967 39.9185 34.9449 40.3534C34.4653 40.954 33.8568 40.61 33.2672 40.7774C33.016 41.3154 32.4708 41.6872 32.6914 42.625C32.8039 43.0904 32.5933 43.262 32.2504 43.4823C31.6569 43.8577 31.0662 44.2719 30.5775 44.9446C30.1196 45.576 30.1992 46.5113 29.7307 47.0656C29.7582 48.1476 29.097 48.6579 28.7106 49.4008C28.5826 49.6376 28.4059 49.9364 28.43 50.1942C28.4903 50.8713 28.4883 51.4946 28.0319 51.8857C27.5847 52.2697 27.7431 53.0238 27.4678 53.4988C26.5835 53.4935 26.4482 54.672 25.888 55.2332C26.0599 55.454 26.2265 55.6688 26.4626 55.9692C25.4779 56.5037 25.7178 58.154 24.9412 58.9391C24.8011 59.0794 24.7634 59.4847 24.7653 59.7701C24.7653 60.2894 24.8329 60.8037 24.8637 61.2168C24.7121 61.3969 24.658 61.5178 24.5996 61.5157C23.7153 61.5104 23.1203 61.8664 23.0381 63.2357C23.0116 63.6597 22.6802 64.0349 22.6305 64.6034C22.5913 65.0542 22.1513 65.4052 21.9103 65.8192C21.7253 66.1381 21.3815 66.5403 21.4365 66.8218C21.6557 67.9998 21.0515 68.5578 20.624 69.2713C20.5598 69.7759 20.8582 70.3249 20.5732 70.8005C20.312 70.9434 20.0512 71.0927 19.7662 71.2438C20.1744 71.8105 20.1563 72.3701 19.712 72.9226C19.6009 73.0608 19.4961 73.2179 19.3913 73.375C18.8151 74.2425 18.2438 75.1096 17.7419 75.8676C17.712 76.6358 17.9065 77.225 17.5293 77.8309C17.2951 78.2054 17.4162 78.9818 17.3809 79.5492C16.9052 79.6172 16.5252 79.6651 16.0592 79.7324C16.1011 80.294 16.1175 80.7082 16.1629 81.1203C16.2498 81.8278 16.2608 82.4307 15.5157 82.3371C15.4669 82.3342 15.3713 82.4842 15.3679 82.5688C15.3514 83.6476 14.9336 84.1657 14.1773 84.5078C13.8296 84.6636 13.3993 85.2735 13.6141 86.0688L13.0774 88.3095C12.4134 88.2618 12.2888 88.7384 12.4095 89.5084C12.535 90.278 12.1003 90.8297 11.7371 90.9737C11.3078 91.1421 11.1064 91.5012 10.82 91.8277C10.4887 92.203 10.1086 92.5105 9.74975 92.8425C9.9525 93.8659 9.41115 93.77 8.9316 93.8513C8.32745 93.9549 8.31344 94.0923 8.68811 95.1418L10.1031 95.0361C10.1866 95.1142 10.2533 95.1612 10.3122 95.2346C10.6372 95.6193 11.1891 95.9221 10.5661 96.6178C10.454 96.743 10.553 97.2225 10.5863 97.538C10.6418 98.0857 10.4476 98.2819 10.0705 98.3036C9.76624 98.3264 9.21716 98.257 9.26687 98.6623C9.36195 99.4147 8.86017 99.7183 8.83067 100.363C8.76779 101.666 8.41904 102.783 8.0341 103.415C7.88244 103.66 7.72548 103.899 7.57334 104.138C7.4212 104.376 7.26423 104.615 7.11257 104.86C6.67886 105.555 6.70009 105.709 7.3568 106.634C6.71673 107.079 6.57439 107.687 6.92976 108.457C7.18422 109.003 7.13447 109.182 6.6153 109.578C6.48683 109.678 6.23329 109.794 6.24149 109.839C6.41867 110.65 5.63244 111.047 5.82265 111.837C5.96507 112.443 5.77186 112.912 5.44442 113.209C4.93442 113.663 5.14732 114.562 4.74452 115.086C4.38616 115.554 4.00992 116.043 3.87757 116.416C4.08567 117.056 4.24356 117.415 4.31548 117.792C4.41444 118.337 4.43952 118.867 3.83393 118.886C3.70837 118.896 3.47365 119.134 3.48861 119.204C3.61316 119.831 3.30938 120.185 3.07706 120.585C3.35708 121.603 2.58732 121.375 2.33424 121.757C2.09854 122.112 2.30518 122.798 1.90578 123.107C2.0603 123.42 2.24282 123.718 2.35532 124.053C2.40601 124.212 2.38281 124.551 2.29587 124.623C2.05391 124.829 1.76656 124.948 1.47293 125.113L1.66784 127.72C1.05447 128.48 1.35671 129.47 1.37692 130.391C1.3832 130.475 1.30351 130.578 1.23976 130.635C0.640893 131.134 1.28456 132.079 0.880793 132.654C0.36739 133.387 0.764288 134.279 0.7763 135.09C0.798435 136.166 0.869827 137.251 1.02187 138.311C1.11116 138.921 0.711768 139.165 0.689518 139.647C1.23181 140.015 1.0381 140.802 1.26456 141.298C1.55523 141.938 1.87295 142.486 1.87386 143.278C1.86994 144.005 2.10265 144.78 1.54484 145.308C1.63076 145.808 1.41533 146.434 1.80696 146.801C2.62207 147.571 1.81885 149.169 2.80059 149.83C2.67356 150.079 2.47699 150.308 2.43013 150.591C2.3451 151.077 2.75412 151.287 2.88158 151.628C3.04719 152.09 3.09013 152.664 3.07995 153.178C3.07024 153.892 3.80668 154.065 3.70715 154.812C3.62645 155.422 4.07072 155.713 4.2344 156.149C4.44057 156.698 4.37242 157.411 4.43467 158.049C4.44094 158.133 4.53511 158.223 4.60175 158.27C5.23772 158.722 4.62052 159.041 4.56593 159.415C4.88463 159.781 5.42934 160.116 5.46312 160.503C5.55094 161.484 6.11591 162.155 6.24623 163.054C6.30705 163.478 6.3104 163.913 6.63877 164.148C6.85945 164.307 6.86765 164.417 6.70248 164.611C6.23883 165.165 6.3233 165.71 6.84724 166.158C7.21569 166.474 7.4373 167.1 8.00909 166.954L8.00813 166.941C8.0714 166.813 8.17572 166.714 8.14238 166.918C8.32398 166.684 8.43311 166.779 8.42539 166.806C8.37805 166.952 8.31574 167.093 8.23653 167.203C8.23653 167.203 8.23653 167.203 8.2317 167.203C8.59381 168.41 8.60346 168.474 8.66039 169.171C8.70864 169.816 8.7564 170.455 8.80464 171.101C8.93056 172.785 8.93974 172.778 9.96047 175.065C10.0652 175.297 10.1454 175.784 10.0522 175.902C9.9546 176.026 9.88988 176.135 9.85414 176.241C10.8591 176.822 11.8282 177.509 12.7602 178.283C12.7713 178.237 12.7824 178.19 12.8051 178.169C13.1891 177.719 13.1041 177.426 12.7169 176.988C12.5155 176.763 12.5778 176.232 12.2833 175.93C11.657 175.282 12.1728 174.841 12.4389 174.373C12.2622 174.153 12.0004 173.965 11.9275 173.704C11.6654 172.73 12.1252 171.541 11.326 170.724C11.187 169.579 11.048 168.434 10.9158 167.379C10.5425 166.868 10.2074 166.413 9.87181 165.951C10.011 164.759 9.28131 164.288 8.75787 163.652C9.06409 163.071 9.50649 162.493 8.74062 161.862C8.52724 160.891 7.84009 160.209 7.86432 159.039C7.87743 158.174 7.11687 157.485 7.14496 156.496C7.14496 156.431 7.03486 156.322 6.96436 156.289C6.89385 156.255 6.80934 156.294 6.7422 156.435C6.74317 156.448 6.7393 156.461 6.73785 156.442C6.6596 156.694 6.53016 156.912 6.4896 156.889C6.18296 156.685 6.36697 156.483 6.51523 156.322C6.56015 156.274 6.68088 156.264 6.71806 156.307C6.72338 156.313 6.72965 156.332 6.73545 156.345C6.73164 155.579 6.38445 155.157 6.16572 154.635C5.91127 154.024 6.03593 153.158 5.94133 152.412C5.85494 151.711 6.06459 150.877 5.43055 150.386C5.3374 149.659 5.23942 148.933 5.1511 148.206C5.07629 147.595 5.18886 146.892 4.63981 146.498C4.62435 146.487 4.68329 146.171 4.75719 146.055C4.99288 145.699 5.05086 145.306 4.79108 144.949C4.56896 144.641 4.31012 144.491 4.64337 144.012C4.93219 143.588 4.76178 142.802 5.18533 142.426C4.35185 141.801 4.62044 140.716 4.54855 139.819C4.50416 139.225 4.12412 139.013 3.99859 138.568C4.26375 138.153 4.52021 137.751 4.77667 137.348C4.35078 136.675 4.30737 136.007 4.64643 135.346C4.47984 135.131 4.31856 134.922 4.15679 134.707L5.00442 133.378C4.96438 132.842 5.01562 132.163 4.84664 131.592C4.59172 130.715 5.40403 130.343 5.20464 129.559C5.62869 128.995 5.6978 128.296 5.53414 127.535C5.40042 126.916 5.64963 126.547 5.9399 126.142C5.59076 125.954 5.25707 125.777 4.76161 125.516C5.13492 125.378 5.37108 125.354 5.5546 125.21C6.06846 124.808 6.19217 123.734 6.98126 123.766C7.04453 123.768 7.19378 123.361 7.15225 123.26C6.7259 122.299 7.67247 121.774 7.47647 120.905C8.14396 119.7 8.10208 117.97 9.02019 116.934C9.03371 116.92 8.79373 116.503 8.61894 116.179C8.82324 115.858 9.04638 115.465 9.30187 115.115C9.58441 114.737 9.34346 114.307 9.27057 113.917C9.26091 113.917 9.26043 113.911 9.27009 113.91C9.07693 113.795 8.90792 113.613 8.92337 113.559C9.06345 113.16 9.22328 113.414 9.35028 113.618C9.3889 113.68 9.40096 113.842 9.37054 113.89C9.36619 113.896 9.35701 113.904 9.34735 113.904C9.49272 113.9 9.59606 113.918 9.61248 113.878C9.96655 112.767 10.4293 111.681 10.0469 110.334C10.6424 109.4 11.2292 108.48 11.7726 107.628C11.6002 107.271 11.4858 107.039 11.3762 106.807C11.8668 106.42 11.4763 105.027 12.4237 105.164C12.6232 104.52 12.675 103.782 13.1294 103.3C13.2777 103.14 13.2985 102.769 13.385 102.496C13.7125 101.485 13.9265 100.385 14.5785 99.622C14.5675 98.3051 15.5 97.7875 15.8724 96.7924C15.8556 96.177 15.6156 95.5004 16.1203 95.0407C16.6661 94.5456 16.5425 93.5422 16.9728 92.9323C17.0868 92.768 16.9956 92.3269 16.9671 92.0109C16.9068 91.2689 16.7446 90.4632 17.6312 90.5008C17.8574 88.9779 18.788 88.1099 19.4217 86.972C19.3372 86.2967 19.7975 85.8923 19.841 85.3049C19.8589 85.0893 19.6585 84.7473 19.4924 84.6039C19.3161 84.4548 19.0607 84.4804 18.769 84.4113C19.1954 84.0094 19.5335 83.6596 19.8943 83.3535C20.0131 83.2537 20.1898 83.2146 20.3362 83.2231C20.933 83.2824 21.0166 82.9061 21.1702 82.1676C21.3417 81.3434 22.199 80.8574 21.8789 79.6934C21.8586 79.617 21.8972 79.4843 21.9407 79.4161C22.3522 78.8142 22.5845 78.0892 22.8502 77.3553C23.1893 76.4342 23.8775 75.7661 24.3281 74.908C24.8048 74.0091 25.1821 73.0137 25.6134 72.0272C25.555 71.9602 25.4009 71.8483 25.3058 71.6802C24.9944 71.1517 25.0606 70.8027 25.4894 70.498C25.7526 70.3161 25.9994 70.1094 26.2839 69.8869C26.3998 70.0081 26.5837 70.1955 26.7098 70.3224C27.4245 69.7497 28.121 69.1914 28.8125 68.6333C28.8672 68.1294 28.5687 67.5805 28.8634 67.1041C29.6143 66.7559 29.6047 66.7566 29.5869 65.9335C29.5792 65.6355 29.6202 65.3403 29.6391 65.0728C29.8637 65.0235 30.0259 64.9205 30.1655 64.9685C30.743 65.159 30.9339 64.3983 31.3559 64.198C31.8341 63.9675 32.2716 63.5843 32.7005 63.2147C32.7782 63.1504 32.7049 62.8184 32.7338 62.6215C32.787 62.2929 32.9807 62.22 33.2149 62.1052C33.8611 61.7842 34.1774 61.1439 34.0104 60.1437C33.9829 59.9705 34.0404 59.6352 34.1249 59.5964C35.2535 59.1031 35.6839 57.6494 36.4345 56.6455C36.9334 55.9786 37.4086 55.255 37.8071 54.4787C38.1413 53.8176 38.6242 53.9762 38.9362 53.927C39.8056 52.5637 40.6097 51.3027 41.4139 50.0418C41.398 50.0235 41.3255 49.964 41.2753 49.8769C41.1922 49.7402 41.1174 49.5836 41.0435 49.4398C41.173 49.3522 41.3005 49.2388 41.4376 49.1896C41.5608 49.148 41.6965 49.1443 41.8882 48.9807C41.8848 48.9355 41.8911 48.8896 41.9037 48.8627C41.9669 48.7346 42.0712 48.6359 42.0379 48.8397C42.2195 48.6054 42.3286 48.7011 42.3209 48.7276C42.2736 48.874 42.2113 49.015 42.1321 49.1247C42.1098 49.1524 42.0673 49.1685 42.0234 49.1653C42.0267 49.7947 42.3271 49.8502 42.5744 49.7148C42.8356 49.572 43.0617 49.2175 43.2264 48.8872C43.7586 47.8218 44.2667 47.1476 44.8916 46.9971C45.2113 46.9213 45.5011 46.8996 45.6846 46.4964C46.0933 45.596 46.8722 45.3625 47.4943 44.8487C48.0661 44.3775 48.396 43.853 48.2734 42.8625C48.1913 42.2196 48.5183 41.9809 49.0084 42.2364C49.19 42.3267 49.3416 42.536 49.5401 42.7224C50.1289 41.7632 50.6698 40.8789 51.1972 40.0086L52.3562 39.9219C52.1119 38.9925 52.5543 38.4791 53.0436 38.0076C53.1073 38.0807 53.1624 38.1675 53.229 38.2144C53.342 38.2969 53.4632 38.3592 53.5854 38.4345C53.625 38.2497 53.6888 38.0632 53.6989 37.8742C53.7125 37.6655 53.6724 37.4543 53.5555 37.2553C53.5459 37.256 53.5406 37.2499 53.5551 37.2488C53.3619 37.1334 53.1929 36.9513 53.2083 36.8982C53.3484 36.4983 53.5082 36.7525 53.6352 36.9572C53.6739 37.0192 53.6859 37.1806 53.6555 37.2283C53.6512 37.2351 53.642 37.2423 53.6323 37.243C53.7777 37.2387 53.881 37.2569 53.8974 37.2167C54.0443 36.7773 54.1709 36.3265 54.2974 35.8756L56.0794 35.7424C56.3967 35.2448 56.8435 34.5299 57.3608 33.7188C57.3704 33.718 57.5327 33.6799 57.694 33.6938C58.4184 33.7695 58.9501 33.3468 59.1071 32.4587C59.182 32.0312 59.3245 31.7285 59.4626 31.3676C59.6945 30.7661 59.3183 30.4112 58.9759 30.0538C59.2609 29.5781 59.541 29.1028 59.8211 28.6275C59.8661 28.1243 59.572 27.5685 59.9671 27.0067C60.28 27.0352 60.8267 26.8775 61.0073 27.1497C61.5694 27.9775 62.5203 26.9912 62.9438 28.1085C63.4354 28.2535 63.5798 27.5871 63.9116 27.413C64.607 27.0364 65.1798 26.3834 65.8357 25.9969C66.6214 25.5292 66.8847 24.5034 67.5367 23.8704L68.4446 23.8026C68.7054 23.3936 68.929 22.942 69.2246 22.6083C69.44 22.3715 69.7544 22.2896 70.0108 22.1471L69.9023 20.6947C70.0945 20.6024 70.3133 20.5406 70.4968 20.3971C70.8358 20.1251 71.1126 19.4098 71.567 20.2911C71.6177 20.3847 71.9943 20.3566 72.0084 20.2841C72.2905 19.1205 73.3639 19.9686 73.8069 19.0721C73.959 18.7687 74.5955 18.9678 74.8712 18.694C75.1871 18.3718 75.4218 18.0037 75.8724 18.0544C76.4306 18.1166 76.4664 17.6855 76.4583 17.0564C76.4539 16.6738 76.8697 16.5843 77.2348 16.7907C77.7927 17.1081 78.2361 17.0404 78.5648 16.5874C79.2511 15.6338 79.5496 15.5985 80.6003 16.4028C80.6516 15.8537 81.1384 15.7394 81.1669 15.0817C81.1954 14.4239 81.294 14.4425 81.8401 14.9924C82.1424 14.5544 82.4448 14.1163 82.7384 13.6919C82.9934 13.7248 83.0286 14.4557 83.4744 13.9875C84.0274 13.3944 84.6861 12.9816 85.3043 12.481C84.9138 11.8914 84.779 11.1485 84.8998 10.2523L85.373 10.2169C85.4551 10.2108 85.5353 10.1788 85.6145 10.1989C85.7633 10.2397 85.9047 10.3135 86.0453 10.3744C85.9569 10.6212 85.868 10.8615 85.7395 11.2217C86.0012 11.4747 86.2968 11.9849 86.6053 12.0203C87.3254 12.1028 88.0536 11.9705 88.7756 11.8841C88.906 11.8743 89.0113 11.6587 89.1286 11.5396C89.1045 11.2168 89.0804 10.8941 89.0563 10.5713C89.0481 10.4616 89.0201 10.3468 89.0423 10.2543C89.0645 10.1618 89.1602 10.0118 89.1853 10.0229C89.3012 10.0792 89.488 10.1755 89.5059 10.2846C89.5711 10.7016 89.5459 11.1449 90.0182 11.1615C90.646 11.1795 90.45 10.5061 90.5432 10.0642C90.5606 9.97204 90.6427 9.90099 90.6901 9.81956C91.3873 10.7022 92.148 10.548 92.8308 10.0036C93.1061 9.78829 93.3351 9.60241 93.6586 9.57823C94.1222 9.54358 94.6534 9.69861 94.9051 8.97226C95.3252 9.07068 95.6526 9.61745 96.1573 9.41745C96.6011 9.24796 97.2477 9.4528 97.508 9.10228C97.9094 8.55948 98.3493 8.66291 98.797 8.54507C99.6117 8.33488 100.607 8.92257 101.208 7.7352C101.768 7.69333 102.332 7.63174 102.893 7.60278C103.508 7.57631 104.159 7.26148 104.683 8.09865C104.739 8.19187 105.006 8.12647 105.135 8.0389C105.264 7.94488 105.32 7.65507 105.451 7.58687C106.03 7.27099 106.634 7.16097 107.247 7.56952C107.365 7.65159 107.571 7.8179 107.593 7.78382C107.989 7.16355 108.388 6.58847 108.995 6.27043C109.159 6.18679 109.145 5.55165 109.215 5.18294C109.587 5.15515 109.923 5.03915 110.226 5.13333C110.529 5.2275 110.445 5.53238 110.275 5.79176C110.205 5.89436 110.21 6.08874 110.147 6.41154C111.002 6.34766 111.796 6.32074 112.579 6.20382C112.771 6.17647 112.906 5.77688 113.108 5.67745C113.801 5.34 114.269 5.42191 115.578 5.91477C116.087 6.10389 116.707 5.69403 117.107 6.49504C117.481 6.4217 117.988 6.52008 118.205 6.23773C118.532 5.80435 118.87 5.78554 119.259 5.72402C119.557 5.67583 119.933 5.90087 120.137 5.44423C120.532 4.55785 121.589 5.32268 121.927 4.25235C121.939 4.21254 122.412 4.31345 122.543 4.49844C122.996 5.17211 123.06 4.01189 123.389 4.25345C123.713 4.6252 124.026 4.98477 124.34 5.34433C124.658 5.32051 124.979 5.2576 125.301 5.27896C125.687 5.30855 126.081 4.99348 126.445 5.37525C126.488 5.50183 126.543 5.5886 126.55 5.68543C126.586 6.16311 126.698 6.49229 127.131 6.44044C127.603 6.37925 127.522 5.95036 127.524 5.52178C127.524 5.39196 127.685 5.27604 127.773 5.15263C128.092 5.51829 128.405 5.87785 128.804 6.33492C129.53 6.04695 130.489 6.66981 131.144 5.54984C131.217 5.42751 131.62 5.48828 131.778 5.64529C132.401 6.25432 132.933 6.22107 133.438 5.51468C133.698 5.15771 133.983 5.19487 134.242 5.48704C134.347 5.90767 133.714 5.95495 134.105 6.5684L135.954 6.43016C136.733 7.35866 137.611 6.89058 138.455 6.88588C138.858 6.88174 139.266 6.74742 139.66 6.82828C140.02 6.89877 140.413 7.41466 140.708 7.32773C141.339 7.13771 141.729 7.86807 142.256 7.9001C142.875 7.93818 143.533 7.57098 144.034 8.42932C144.517 8.39323 145.021 8.45288 145.476 8.29558C146.035 8.10452 146.273 8.88516 146.78 8.91218C147.535 8.94661 148.091 8.45716 148.599 8.10761C149.199 8.79627 149.752 9.43653 150.172 9.91798C151.084 9.84977 151.784 9.79098 152.567 9.47931C152.567 9.47285 152.566 9.45994 152.575 9.45277C152.638 9.3247 152.742 9.22603 152.709 9.42975C152.891 9.19548 153 9.29118 152.992 9.31772C152.945 9.46407 152.882 9.60504 152.803 9.71482C152.772 9.75608 152.696 9.76831 152.64 9.74646C152.606 9.93727 152.604 10.0413 152.619 10.0466C153.281 10.2633 153.819 10.9631 154.564 10.9204C154.902 10.9016 155.257 11.3555 155.617 11.4324C155.997 11.5144 156.415 11.2624 156.719 11.8174C157.754 11.9479 158.251 13.2739 159.067 13.7971C159.675 13.7516 160.288 13.4981 160.786 13.7271C161.304 13.9675 161.761 14.3682 162.343 14.2209C162.424 14.2018 162.659 14.4958 162.649 14.6134C162.557 15.7238 163.318 15.2579 163.636 15.6107C164.319 16.3646 164.345 16.3172 165.548 15.9157C165.686 15.873 165.904 15.8761 165.996 15.9926C166.271 16.3551 166.64 16.5611 166.778 17.1739C166.88 17.6208 167.282 18.2528 167.555 18.2778C168.015 18.3214 168.267 18.7699 168.615 18.8737C168.938 18.9665 169.222 19.0036 169.461 19.3428C169.51 19.4105 169.591 19.4629 169.666 19.4833C169.745 19.5033 169.825 19.4714 169.907 19.4652C170.308 19.4353 170.713 19.3985 171.114 19.375C171.269 19.3634 171.427 19.3971 171.579 19.4117C172.287 19.8001 172.25 21.3154 173.234 21.3587C173.371 21.3679 173.457 22.1924 173.672 22.3451C173.923 22.5146 174.234 22.5238 174.529 22.755C175.111 23.2048 175.984 23.1201 176.038 24.4402C176.048 24.5693 176.275 24.812 176.376 24.7979C177.071 24.6811 177.338 25.518 177.774 25.9528C178.209 26.3876 178.603 26.8515 178.813 27.6408C178.941 28.1245 179.43 28.6917 180.009 28.4407L181.712 29.2741C181.654 29.9146 181.994 30.2462 182.328 30.5588C182.705 30.9201 182.957 31.6347 183.553 31.415C183.759 31.8345 183.943 32.2816 184.181 32.6728C184.33 32.9148 184.569 33.2539 184.748 33.2406C185.265 33.2084 185.378 33.4856 185.522 34.1175C185.675 34.7941 186.434 34.9451 186.593 35.7771C186.779 36.7629 187.474 36.8407 188.05 37.1417C188.268 37.2553 188.525 37.5152 188.603 37.7755C188.967 39.079 189.653 39.8132 190.644 40.1351C190.743 40.1666 190.836 40.6984 190.803 40.9606C190.773 41.216 190.57 41.4194 190.433 41.6698C190.826 41.926 190.986 42.5697 191.477 42.5071C192.199 42.4207 191.872 43.5032 192.309 43.834C192.69 44.1236 193.237 44.4917 193.109 45.3062C192.987 46.0813 193.743 46.2584 193.721 46.9416C193.677 48.3601 194.461 48.6455 195.33 48.9116L195.533 51.6163C195.942 52.0856 196.25 52.4391 196.563 52.7986C196.699 53.3792 196.655 53.9602 197 54.5575C197.503 55.4352 197.83 56.4948 198.38 57.3625C198.287 58.9728 199.354 60.2562 199.22 61.9021C199.168 62.5096 199.299 63.1555 199.336 63.6525C199.756 64.134 200.069 64.4935 200.398 64.8714C200.453 65.6008 200.499 66.3503 200.565 67.0984C200.641 67.9172 200.505 68.836 201.208 69.3938C201.285 69.4529 201.312 69.8793 201.238 69.9952C200.982 70.4102 200.763 70.7901 200.872 71.3987C200.98 72.0008 200.863 72.6521 201.379 73.1199C201.666 73.3841 201.597 73.8891 201.329 74.2012C200.886 74.7082 201.357 75.426 201.127 75.9819C200.871 76.5853 200.541 77.1747 200.43 77.8386C200.317 78.5351 200.405 79.3205 201.006 79.7624C200.717 80.2449 200.317 80.6059 200.849 81.3645C201.35 82.0801 201.277 82.144 200.508 82.7142C200.214 82.931 200.398 83.1834 200.593 83.3895C200.656 83.4562 200.72 83.5293 200.779 83.6028C200.517 84.1936 200.026 84.7691 200.796 85.3995C200.853 85.4472 200.894 85.5415 200.944 85.6157C200.311 85.8513 200.928 87.4799 199.905 87.3097C199.86 87.3 199.784 87.5784 199.757 87.7362C199.751 87.7886 199.893 87.8624 199.928 87.9506C200.04 88.2148 200.218 88.5067 200.213 88.7667C200.198 89.4754 199.515 89.0461 199.338 89.5981L199.552 92.4706C199.174 92.9338 198.667 93.5495 198.159 94.1652C198.398 94.4394 198.52 94.5796 198.738 94.8294C198.313 95.5103 197.869 96.1927 197.439 96.8739C197.777 97.3031 198.228 97.555 197.871 98.432C197.547 99.2351 197.279 100.06 196.815 100.744C196.574 101.099 196.339 101.461 196.105 101.836C195.757 103.225 195.313 104.556 194.782 105.836C195.014 105.818 195.241 105.801 195.473 105.784C195.708 106.273 196.235 106.363 196.26 107.024C196.553 106.989 196.725 107.138 196.939 107.602C196.963 107.601 196.988 107.612 197.004 107.624C197.103 107.714 197.181 107.857 197.027 107.804C197.211 108.056 197.144 108.197 197.123 108.186C197.011 108.116 196.903 108.027 196.817 107.917C196.79 107.88 196.779 107.803 196.784 107.737C196.41 107.603 196.278 107.405 196.26 107.03C195.771 107.047 195.715 107.726 195.401 108.009C195.219 108.172 195.025 108.31 194.826 108.435C194.668 108.532 194.12 109.254 193.871 109.695C193.502 110.345 192.958 110.86 193.214 111.892C193.298 112.23 193.11 112.439 192.822 112.486C192.284 112.572 191.957 113.135 191.938 113.721C191.908 114.619 191.341 114.902 191.073 115.538C191.096 115.835 191.144 116.156 191.138 116.475C191.135 116.877 191.352 117.322 191.083 117.686C191.009 117.731 190.945 117.781 190.874 117.812C190.194 118.136 190.146 118.34 190.555 119.063C190.644 119.218 190.747 119.354 190.944 119.657C190.137 119.964 189.308 119.734 188.596 120.008C188.62 121.051 187.874 121.73 188.213 122.756C187.723 123.273 188.108 124.731 187.079 124.671C186.899 125.113 186.496 125.319 186.492 125.968C186.483 126.631 186.146 127.123 185.666 127.27C185.4 127.348 185.176 127.475 185.205 127.797C185.289 128.726 184.649 129.001 184.389 129.611C184.414 130.336 184.439 131.061 184.47 131.864C184.258 131.756 184.142 131.7 184.026 131.644C183.905 131.582 183.789 131.525 183.668 131.463C183.634 131.654 183.525 131.889 183.574 132.028C183.697 132.376 183.895 132.679 183.957 132.798C183.642 133.458 183.353 134.07 183.097 134.615C182.753 134.491 182.62 133.748 182.277 134.358C182.14 134.609 181.84 134.878 181.87 135.09C182.012 136.137 181.494 136.04 181.013 136.089C180.868 136.099 180.659 136.16 180.61 136.287C180.48 136.635 180.504 137.217 180.316 137.355C180.062 137.536 179.78 137.602 179.536 137.9C178.707 138.903 178.636 140.421 178.103 141.609C177.9 142.072 178.284 142.07 178.391 142.276C178.602 142.689 178.594 143.033 178.358 143.395C178.206 143.627 178.09 143.895 177.962 144.139C177.373 143.577 176.902 143.551 176.548 144.062C176.386 144.295 176.239 144.54 176.07 144.806L175.268 144.866C174.898 145.445 174.508 146.007 174.106 146.536C174.16 146.487 174.216 146.444 174.27 146.394C174.339 146.474 174.398 146.541 174.461 146.614C174.36 146.693 174.261 146.797 174.153 146.838C174.12 146.853 174.059 146.748 174 146.681C173.681 147.094 173.352 147.495 173.012 147.878C172.871 148.213 172.684 148.499 172.694 148.888C172.712 149.516 172.782 150.141 172.819 150.625C172.471 151.17 172.236 151.597 171.952 151.962C171.801 152.155 171.572 152.334 171.368 152.337C170.811 152.346 170.418 152.492 170.584 153.408C170.144 153.759 169.731 154.341 169.255 154.409C168.424 154.523 168.034 154.955 167.852 156.033C167.737 156.71 167.373 157.231 166.688 157.295C166.201 157.338 165.707 157.738 165.304 158.132C164.951 158.483 164.593 158.958 164.718 159.714C164.728 159.778 164.628 159.942 164.57 159.946C163.399 159.995 164.181 160.657 164.371 161.175C164.426 161.333 164.409 161.685 164.326 161.749C163.951 162.057 163.539 162.263 163.195 162.671C163.003 162.893 162.515 162.664 162.298 162.875C162.108 163.064 162.161 163.638 162.004 163.948C161.796 164.353 161.601 164.926 161.111 164.794C160.541 164.642 160.349 165.461 159.907 165.52C159.523 165.575 159.411 165.966 159.188 166.229C158.969 166.486 159.001 166.711 159.239 166.914C159.545 167.17 159.419 167.504 159.207 167.52C158.621 167.551 158.109 167.654 157.806 168.397C157.596 168.912 157.241 169.023 156.815 169.049C156.612 169.064 156.319 169.229 156.247 169.442C155.939 170.386 155.058 170.361 154.67 171.15C154.287 171.932 153.406 171.913 153.108 172.863C152.963 173.329 152.561 173.138 152.284 173.276C151.807 173.512 151.318 173.796 150.921 174.202C150.732 174.398 150.765 175.226 150.64 175.249C149.679 175.392 149.601 176.482 149.285 177.323C149.204 177.154 149.105 176.993 149.042 176.809C148.853 176.226 148.858 176.226 148.534 176.444C148.34 176.576 148.131 176.832 147.939 176.801C147.242 176.697 147.014 177.344 146.743 177.948C146.807 178.021 146.879 178.081 146.929 178.168C147.013 178.304 147.083 178.461 147.156 178.605C147.022 178.687 146.871 178.88 146.766 178.836C146.485 178.714 146.23 178.493 145.964 178.311C145.608 178.87 145.326 179.586 144.873 179.951C144.318 180.395 143.851 181.098 143.089 181.103C142.633 181.105 142.001 180.834 141.751 181.398C141.49 181.989 140.676 181.563 140.749 182.414C140.807 183.117 140.21 183.383 140.338 184.126C140.399 184.485 139.895 184.763 139.628 184.497C139.213 184.087 138.865 183.645 138.438 184.365C138.153 184.841 137.577 184.735 137.331 185.35C137.155 185.792 136.827 186.005 136.428 186.197C136.063 186.373 135.884 187.166 135.804 187.328C134.459 187.727 133.393 187.43 132.514 187.82C132.429 188.313 132.456 188.74 132.321 188.873C131.732 189.449 130.915 189.562 130.449 190.409C129.586 190.227 129.902 191.397 129.532 191.84C129.344 191.413 129.162 190.992 128.951 190.501C128.518 191.54 127.958 192.159 127.031 192.034C126.834 192.01 126.556 192.18 126.445 192.389C125.853 193.498 124.843 193.82 124.097 194.629C123.935 194.803 123.906 194.864 123.737 194.617C123.421 194.154 123.127 194.124 122.726 194.537C122.257 195.026 121.65 195.286 121.327 196.03C121.282 196.138 121.123 196.162 121.016 196.222C120.879 195.824 120.755 195.456 120.613 195.052C120.42 195.332 120.288 195.712 120.111 195.745C119.479 195.87 118.834 195.873 118.191 195.921C117.901 196.715 117.129 196.656 116.735 197.295C116.679 197.384 116.287 197.212 116.114 197.043C115.884 196.82 115.582 196.804 115.643 197.104C115.904 198.461 114.617 197.863 114.551 198.744C114.489 198.696 114.414 198.663 114.37 198.595C113.895 197.884 113.32 198.316 112.786 198.259C112.829 198.574 112.802 198.861 112.506 198.793C112.426 198.773 112.369 198.465 112.303 198.295C112.062 198.313 111.676 198.212 111.605 198.367C111.191 199.268 110.513 199.097 109.901 199.091C109.643 199.091 109.328 198.576 109.13 198.649C108.879 198.746 108.76 199.293 108.372 199.232C107.993 200.006 107.309 199.895 106.751 200.158C106.709 200.18 106.657 200.327 106.675 200.377C106.711 200.466 106.787 200.57 106.856 200.585C107.009 200.619 107.179 200.554 107.325 200.621C107.43 200.672 107.513 200.86 107.577 201.005C107.589 201.036 107.486 201.226 107.433 201.23C106.976 201.218 106.532 201.511 106.075 200.929C105.769 200.536 105.647 200.591 105.287 201.033C104.958 201.441 104.721 201.588 104.28 201.212C103.86 200.848 103.365 200.657 102.902 200.38C102.822 200.808 102.749 201.19 102.668 201.605L101.21 201.714C100.65 201.756 100.083 201.772 99.5249 201.847C99.0632 201.907 98.5668 201.762 98.1225 202.12C98.093 202.7 98.0601 203.3 98.0132 204.167C97.7196 203.488 97.5376 203.066 97.3497 202.632C97.228 202.823 97.1493 203.069 97.0179 203.131C96.2805 203.465 95.4943 203.732 94.755 203.196C94.1132 202.731 93.4139 202.732 92.973 203.135C92.5547 203.516 92.1766 203.785 91.7096 203.709C90.751 203.554 90.1652 204.422 89.4615 204.949C89.2958 205.071 89.2456 205.244 89.1119 205.014C88.9868 204.445 88.8603 203.858 88.6991 203.13C88.3615 204.135 87.7544 204.005 87.2218 204.09C87.0932 205.359 86.0676 203.592 85.8995 204.721C85.3668 204.872 84.8327 205.002 84.2822 204.784C83.8172 203.371 83.6931 203.335 82.9063 204.374C82.6079 204.02 82.2834 203.512 81.8922 203.865C81.7015 204.042 81.7029 204.581 81.5889 205.07C80.7312 205.16 79.8537 205.569 78.9652 204.792C78.9444 204.774 78.7691 205.092 78.5517 205.433C78.262 204.935 77.9728 204.444 77.5947 203.804C77.2136 204.747 76.9426 205.41 76.6765 206.073C76.3027 205.62 75.9222 205.143 75.4933 205.902C75.1499 206.505 75.0181 205.781 74.768 205.683C74.5193 205.799 74.3806 206.673 73.9489 205.9C73.904 205.819 73.8075 205.697 73.7601 205.713C73.0604 205.967 72.5277 205.597 72.0391 204.907C71.8981 204.71 71.6165 204.582 71.4137 204.597C70.8825 204.636 70.332 204.483 69.9103 205.209C69.6176 205.711 69.2052 205.197 68.8885 204.792C68.7339 204.998 68.5842 205.204 68.4301 205.417C68.2515 205.235 68.0675 205.048 67.9511 204.92C67.6715 205.143 67.4324 205.388 67.161 205.525C66.9504 205.631 66.595 205.489 66.482 205.666C66.1898 206.11 66.057 206.152 65.5939 205.804C64.6981 205.125 63.6468 204.833 62.6698 205.276C62.2704 205.455 62.0236 206.116 61.6088 205.31C61.0496 205.43 60.5063 205.438 60.0732 204.776C58.8707 204.865 57.6605 204.917 56.4633 205.078C56.2035 205.11 56.0059 205.651 55.7394 205.723C55.297 205.847 54.7976 205.988 54.4181 205.328C54.2728 205.073 54.0506 204.895 53.7691 204.572L51.3207 204.755C51.0223 204.206 51.1358 203.321 50.3699 203.534C49.8469 203.683 49.2543 203.812 48.8082 202.976C48.4841 203.772 48.0808 204.095 47.511 203.293C47.4728 203.238 47.3483 203.195 47.3439 203.202C46.9556 204.179 46.6316 203.417 46.2998 203.072C45.8717 202.628 45.4304 202.702 44.9761 203.294C44.2166 202.163 43.3125 203.062 42.4307 202.764C41.9343 202.23 41.4809 201.362 40.615 201.667C40.3923 201.742 40.1644 201.486 40.1871 201.075C40.2099 200.665 40.01 200.459 39.7584 200.471C39.2788 200.488 38.8461 200.546 38.427 200.006C38.2657 199.797 37.7282 199.818 37.5244 200.015C37.1443 200.387 36.8675 200.843 36.459 200.056C35.7689 200.308 35.2242 199.973 34.7346 199.269C34.5984 199.072 34.3106 198.924 34.1136 198.952C33.3645 199.067 32.8319 198.308 32.1848 198.032C31.8835 197.898 31.8313 198.045 31.6628 198.194C31.4851 198.35 31.1224 198.566 31.0678 198.485C30.7134 197.966 30.1503 198.099 29.8195 197.702C29.0937 196.828 28.1603 196.619 27.3678 196.022C26.8787 195.65 26.7637 195.801 26.4821 196.193C26.3899 196.323 25.9673 196.257 25.8529 196.09C25.5096 195.59 25.1295 195.703 24.7436 195.738C24.6774 196.412 24.3635 196.825 23.9308 197.078C23.8192 197.145 23.6439 197.008 23.4952 196.967C23.5179 196.816 23.5097 196.642 23.5628 196.508C23.814 195.905 24.2187 195.667 24.7436 195.738C24.7142 195.085 24.197 194.987 23.9793 194.543C23.6673 194.787 23.5113 195.298 23.0448 195.229C22.5242 195.151 22.2218 195.524 22.0504 196.024C22.1064 196.253 22.157 196.477 22.213 196.706C22.2908 196.837 22.3584 196.962 22.4028 197.101C22.4395 197.202 22.4216 197.353 22.3926 197.485C22.8112 199.317 23.1955 201.144 23.517 202.977C23.6532 202.72 23.7966 202.495 23.9888 202.403C24.4901 202.158 24.6611 201.911 24.763 201.196C24.8297 200.724 25.6106 200.84 25.8101 200.196C25.9004 200.364 26.0042 200.519 26.0805 200.695C26.1809 200.934 26.2533 201.188 26.334 201.423C26.559 201.185 26.8541 200.845 26.8652 200.864C27.1791 201.295 27.5471 201.475 27.9576 201.314C28.7592 200.995 29.415 202.231 30.2181 201.801C30.5914 202.182 31.0704 202.419 31.1322 203.18C31.1447 203.348 31.3113 203.498 31.4108 203.659C32.1004 203.66 32.7712 203.408 33.4598 204.11C33.7544 204.412 34.2991 204.099 34.7907 204.504C35.1992 204.837 35.8657 204.592 36.4186 204.583C36.734 204.579 37.0416 204.537 37.2927 204.518C37.6752 204.957 37.9886 205.316 38.3285 205.706C38.4787 205.507 38.6284 205.301 38.7521 205.136C39.3002 205.322 39.4856 206.308 40.1472 206.258C40.223 206.233 40.3109 206.24 40.365 206.184C41.2657 205.305 41.4545 205.232 42.1697 206.029C42.5564 206.461 43.0466 206.522 43.3982 206.872C43.8545 207.325 44.5069 207.153 44.8411 207.855C45.4447 207.485 45.7325 208.736 46.3888 208.421C46.9843 208.136 47.4371 209.323 48.1717 208.95C48.6677 208.698 49.2839 208.821 49.8494 208.785C50.3178 208.75 50.7201 208.805 51.1943 209.172C51.6164 209.491 52.2785 209.188 52.83 209.225C53.4355 209.27 53.9223 210.13 54.6177 209.753C54.8978 209.602 55.2513 209.654 55.5778 209.668C55.967 209.678 56.3572 209.441 56.8145 209.777C57.0656 210.083 57.3703 210.456 57.6639 210.811L62.1986 210.472C62.4448 210.843 62.7679 211.332 63.0354 211.727C63.3305 211.647 63.5463 211.676 63.6144 211.548C64.1288 210.633 64.8662 210.948 65.5539 210.987C65.9156 211.668 66.4439 211.524 66.8747 211.375C67.4383 211.184 67.7057 211.969 68.1756 211.953C68.5629 211.937 68.9227 211.943 69.2371 211.471C69.5559 210.993 70.0586 211.027 70.5265 211.375C70.7269 211.522 70.9442 211.701 71.1548 211.724C72.2023 211.834 73.0942 211.358 73.9245 210.576C74.5325 210.005 74.6479 210.054 75.394 210.485C75.7441 210.686 76.1415 210.806 76.4313 211.109C77.0745 211.788 77.2465 210.97 77.5802 210.627C77.6439 210.7 77.6995 210.793 77.7709 210.84C78.8188 211.541 79.8195 211.154 80.5444 209.743C80.5396 209.744 80.5396 209.744 80.5444 209.743C80.3513 209.628 80.1823 209.446 80.1977 209.393C80.3378 208.993 80.4976 209.247 80.6246 209.452C80.6632 209.514 80.6753 209.675 80.6449 209.723C80.6449 209.723 80.6352 209.724 80.6357 209.73C81.1124 209.675 81.5683 209.472 81.8372 209.692C82.365 210.127 82.7629 210.642 83.2024 209.701C84.1108 209.444 85.1076 209.006 85.9358 209.691C86.6862 210.31 87.571 209.218 88.1625 210.375C88.1736 210.394 88.2881 210.366 88.3185 210.318C88.4286 210.167 88.5281 210.004 88.645 209.813C88.8237 209.995 89.0076 210.182 89.2071 210.381L91.5927 210.203C91.742 209.991 91.8999 209.765 92.0583 209.545C92.4272 209.933 92.6976 210.497 93.2651 209.838C93.9398 209.054 94.7468 208.481 95.746 208.594C96.2801 208.658 96.8645 208.29 97.2966 209.069C97.385 208.952 97.5183 208.851 97.5608 208.705C97.8303 207.763 97.8328 207.731 98.5653 208.176C99.0434 208.465 99.5041 208.521 99.8576 208.053C100.101 207.73 100.339 207.602 100.672 207.584C101.794 207.519 102.914 207.423 104.024 207.339C104.331 206.823 104.592 206.291 105.176 206.89C105.754 207.476 106.376 207.157 106.977 207.021C107.293 206.18 107.926 206.464 108.453 206.359C108.759 206.298 109.216 206.374 109.34 206.137C109.737 205.348 110.336 205.634 110.854 205.544C111.396 205.451 111.625 204.551 112.291 204.755C112.778 204.907 112.891 203.879 113.488 204.01C113.957 204.111 114.446 203.964 114.929 203.928L116.132 203.838C116.123 203.728 116.085 203.601 116.113 203.521C116.292 203.067 116.66 203.24 116.941 203.109C117.284 202.947 117.575 202.62 117.91 202.426C118.022 202.366 118.246 202.434 118.338 202.557C118.607 202.913 118.798 203.061 119.036 202.544C119.32 201.932 120.019 202.632 120.295 201.982C120.625 201.198 120.875 202.133 121.162 202.08C121.423 201.671 121.675 201.275 121.975 200.805C122.4 200.773 122.899 200.827 123.344 200.67C123.685 200.554 123.872 200.066 124.293 199.911C124.68 199.765 124.933 199.058 125.087 198.839C125.815 198.311 126.56 198.924 127.01 197.994C127.195 197.617 127.558 197.733 127.827 198.076C128.191 198.536 128.519 198.498 128.822 198.002C129.021 197.675 129.23 197.361 129.434 197.034C130.023 197.957 130.753 197.461 131.431 197.502C131.992 196.622 132.557 195.736 133.144 194.816C133.317 194.991 133.483 195.265 133.672 195.322C133.87 195.378 134.274 195.257 134.285 195.146C134.432 193.662 135.397 192.992 135.923 191.843C136.222 192.015 136.451 192.096 136.63 192.271C137.085 192.717 137.649 192.72 137.923 192.297C138.437 191.506 139.095 191.859 139.785 191.671C140.424 190.079 141.798 189.359 142.679 187.904C143.116 187.184 143.86 186.68 144.698 186.78C145.101 187.496 145.352 187.01 145.771 186.777C146.139 186.568 146.355 186.143 146.703 185.994C147.056 185.844 147.519 186.121 147.78 185.582C147.829 185.072 147.536 184.523 147.835 184.046C148.311 183.783 148.987 184.122 149.257 183.258C149.926 183.111 150.349 182.073 151.156 182.409C151.466 181.944 151.776 181.486 152.091 181.015L153.583 180.903C153.646 180.386 154.143 180.271 154.142 179.609C154.139 178.655 154.865 178.308 155.167 177.598C155.824 177.88 155.921 176.509 156.594 176.809C157.252 177.104 157.36 175.752 158.016 176.015C158.475 175.344 158.822 174.656 159.693 174.552C160.507 174.453 160.557 172.586 161.606 172.533C161.664 172.529 161.756 172.386 161.755 172.308C161.742 170.771 162.51 170.454 163.442 170.39C163.691 169.697 164.192 169.77 164.664 169.708C164.914 169.677 164.961 169.394 165.012 169.046C165.113 168.377 165.353 167.755 165.541 167.085C165.73 167.279 165.914 167.466 166.103 167.66C166.236 167.228 166.373 166.783 166.515 166.344C167.376 166.299 167.556 165.195 168.044 164.581C168.172 164.415 168.128 163.757 168.167 163.754C168.946 163.786 168.802 162.83 169.072 162.284L170.636 162.167C171.068 161.44 171.587 160.655 172.022 159.785C172.162 159.508 171.934 158.799 172.337 158.801C173.183 158.809 173.151 157.221 174.006 157.345C174.479 156.661 174.952 155.97 175.421 155.292C175.713 155.374 176.113 155.13 176.376 155.273C176.88 154.807 177.401 154.372 177.935 153.975C177.941 153.858 177.926 153.722 177.906 153.588C177.879 153.414 177.694 153.285 177.59 153.124C177.238 152.579 177.132 151.867 177.448 151.421C177.721 151.044 178.406 151.174 178.159 150.219C178.516 149.66 178.892 149.113 179.227 148.523C179.356 148.299 179.396 147.985 179.461 147.753C179.313 147.523 179.23 147.322 179.105 147.214C178.912 147.041 178.859 146.915 178.988 146.756C179.042 146.693 179.116 146.584 179.171 146.599C179.394 146.661 179.618 146.728 179.821 146.849C180.483 147.261 180.49 147.286 180.967 146.523C181.053 146.381 181.118 146.214 181.198 146.045C180.829 145.593 180.424 145.947 180.047 145.852C179.953 145.827 179.874 145.606 179.819 145.46C179.806 145.422 179.905 145.246 179.962 145.235C180.444 145.18 180.927 145.15 181.405 145.115C181.824 144.668 181.949 143.873 182.595 143.688C183.033 143.565 183.304 143.032 183.403 142.336C183.498 141.667 183.758 141.05 183.947 140.394L184.932 140.32C185.421 139.518 185.913 138.702 186.381 137.933C186.231 137.626 185.994 137.307 185.913 136.936C185.804 136.457 185.911 136.391 186.752 136.276C186.993 136.245 187.307 136.358 187.46 136.197C187.748 135.89 187.993 135.469 188.154 135.023C188.21 134.863 187.992 134.483 187.862 134.233C187.449 133.446 187.437 133.421 188.086 132.937C188.684 132.497 189.029 131.913 188.738 130.941C188.728 130.942 188.728 130.936 188.737 130.935C188.544 130.819 188.375 130.637 188.391 130.584C188.531 130.184 188.69 130.439 188.817 130.643C188.851 130.699 188.86 130.822 188.841 130.888C189.568 130.62 189.67 129.385 190.487 129.396C190.715 129.398 190.694 128.783 190.427 128.329C190.332 128.167 190.201 128.041 190.083 127.894C190.52 127.238 191.142 127.639 191.588 127.496C192.06 126.85 192.487 126.267 192.932 125.656C192.733 125.268 192.603 125.018 192.473 124.775C192.039 123.976 192.091 123.635 192.748 123.521C193.16 123.451 193.541 123.409 193.739 122.875C193.961 122.275 194.152 121.65 194.359 121.037C193.598 120.471 194.17 120.065 194.426 119.663C194.639 119.329 194.659 118.938 194.757 118.567C194.856 118.203 195.32 118.032 195.625 117.769L195.48 115.826C195.685 115.512 195.889 115.191 196.116 114.843C196.289 115.019 196.472 115.2 196.656 115.387C197.002 114.874 196.889 114.02 197.366 113.581C197.821 113.164 197.526 111.882 198.416 111.906C198.455 111.903 198.413 111.277 198.534 111.073C199.136 110.028 199.172 108.63 199.713 107.557C199.479 106.374 200.499 106.895 200.746 106.227C200.765 106.167 200.791 106.127 200.818 106.086C201.016 105.487 201.239 104.899 201.472 104.323C201.266 103.508 201.34 102.749 201.252 102.022C201.23 101.855 201.356 101.664 201.391 101.544C201.634 101.422 201.909 101.389 202.03 101.185C202.15 100.981 202.061 100.566 202.165 100.331C202.468 99.6463 202.981 99.2315 202.956 98.1818C202.936 97.3329 203.358 96.4834 203.203 95.5148C203.166 95.271 203.31 94.9227 203.45 94.7175C203.717 94.3275 203.486 93.9033 203.413 93.5128C203.404 93.5135 203.403 93.5071 203.413 93.5064C203.22 93.391 203.051 93.2089 203.066 93.1558C203.206 92.7558 203.366 93.01 203.493 93.2148C203.532 93.2768 203.544 93.4382 203.513 93.4859C203.513 93.4859 203.504 93.4866 203.499 93.4934C203.848 93.4868 204.004 93.2349 203.954 92.9531C203.713 91.6729 203.927 90.6442 204.699 89.9309C204.597 88.9518 204.816 87.9099 204.03 87.274C204.07 86.7712 203.808 86.252 204.09 85.7441C204.573 84.8641 204.633 83.7172 205.037 82.7522C205.378 81.9218 205.658 80.9207 205.43 79.8213C205.348 79.4379 205.315 78.8691 205.472 78.6238C205.771 78.1534 205.727 77.6894 205.712 77.1583C205.69 76.4783 205.571 75.9289 205.112 75.4959L205.069 75.5705ZM30.9524 48.7269C31.0108 48.794 31.0693 48.861 31.1436 48.9463C31.0958 49.0862 31.0485 49.2326 31.0007 49.3725C30.9422 49.3054 30.8292 49.223 30.835 49.1706C30.8476 49.0139 30.9099 48.8729 30.9524 48.7269ZM1.76846 131.991C1.67332 131.952 1.52992 131.658 1.55117 131.617C1.72553 131.286 1.93128 130.985 2.17035 130.61C2.26643 130.921 2.39777 131.184 2.4132 131.456C2.43973 131.876 2.1234 132.126 1.76797 131.984L1.76846 131.991ZM10.863 176.094C10.9214 176.161 10.9798 176.228 11.0542 176.314C11.0064 176.454 10.959 176.6 10.9112 176.74C10.8528 176.673 10.7398 176.59 10.7456 176.538C10.7582 176.381 10.8205 176.24 10.863 176.094ZM3.81688 133.798C3.75315 133.66 3.6701 133.523 3.63485 133.377C3.62133 133.326 3.72082 133.227 3.76864 133.152C3.8372 133.29 3.90529 133.421 3.97337 133.553C3.91686 133.641 3.86905 133.716 3.81688 133.798ZM7.06027 113.322C7.0226 113.338 6.94438 113.201 6.88595 113.134C6.98689 113.055 7.0859 112.95 7.19456 112.91C7.23222 112.894 7.31045 113.031 7.36888 113.098C7.26794 113.177 7.16893 113.282 7.06027 113.322ZM10.5822 94.3641C10.5238 94.2971 10.4108 94.2146 10.4166 94.1623C10.4291 94.0056 10.4914 93.8646 10.534 93.7186C10.5924 93.7856 10.6508 93.8527 10.7252 93.938C10.6774 94.0779 10.63 94.2242 10.5822 94.3641ZM18.2266 78.7785C18.1194 78.7086 18.0073 78.639 17.9001 78.5692C17.948 78.4942 18.005 78.3471 18.0446 78.3571C18.1629 78.3808 18.2715 78.47 18.3831 78.5331C18.3353 78.6081 18.2874 78.683 18.2266 78.7785ZM30.1099 59.0916C30.0612 58.115 30.8599 58.7304 31.0425 58.0547C31.2749 57.1999 31.4003 58.2292 31.6022 58.3309C31.6374 58.3477 31.6688 58.3779 31.7002 58.408C31.211 59.0093 30.6851 59.0551 30.1152 59.0977L30.1099 59.0916ZM40.0416 47.9243C40.0039 47.9401 39.9257 47.8031 39.8673 47.7361C39.9677 47.6507 40.0633 47.5657 40.159 47.4806L40.3502 47.7C40.2492 47.779 40.1502 47.8837 40.0416 47.9243ZM46.1697 44.344C46.1112 44.277 45.9982 44.1945 46.004 44.1422C46.0166 43.9854 46.0789 43.8445 46.1214 43.6985L46.3126 43.9179C46.2648 44.0578 46.2175 44.2041 46.1697 44.344ZM54.6172 33.9822C54.5588 33.9152 54.5004 33.8481 54.426 33.7628C54.4738 33.6229 54.5212 33.4766 54.569 33.3367C54.6274 33.4037 54.7404 33.4862 54.7346 33.5385C54.7221 33.6953 54.6598 33.8362 54.6172 33.9822ZM61.8573 26.9563C61.7935 26.8183 61.7105 26.6817 61.6752 26.535C61.6617 26.4841 61.7612 26.3858 61.809 26.3108C61.8776 26.4485 61.9457 26.5797 62.0138 26.7109C61.9573 26.7995 61.9094 26.8745 61.8573 26.9563ZM92.4664 7.79135C92.3867 7.95958 92.2761 8.10417 92.1761 8.26094C92.1283 8.33592 92.0752 8.4048 92.0274 8.47978C91.7299 8.20341 91.6532 7.82616 91.7986 7.43231C91.8517 7.29851 92.0338 7.20052 92.169 7.19041C92.3042 7.1803 92.4433 7.28675 92.5838 7.34766C92.5466 7.49974 92.5248 7.66364 92.4664 7.79135ZM120.323 3.77505C120.254 3.63737 120.186 3.50614 120.118 3.37491C120.174 3.2863 120.222 3.21132 120.274 3.12953C120.338 3.26757 120.421 3.40417 120.456 3.55084C120.47 3.60176 120.371 3.70007 120.323 3.77505ZM49.431 205.006C49.3624 204.869 49.2943 204.737 49.2262 204.606C49.2828 204.517 49.3306 204.443 49.3827 204.361C49.4465 204.499 49.5295 204.635 49.5648 204.782C49.5783 204.833 49.4788 204.931 49.431 205.006ZM122.276 198.913C122.217 198.846 122.104 198.763 122.11 198.711C122.123 198.554 122.185 198.413 122.227 198.267C122.286 198.334 122.344 198.401 122.419 198.487C122.371 198.627 122.323 198.773 122.276 198.913ZM124.063 196.832C123.999 196.694 123.916 196.557 123.881 196.411C123.867 196.36 123.967 196.261 124.014 196.186C124.083 196.324 124.151 196.455 124.219 196.587C124.163 196.675 124.115 196.75 124.063 196.832ZM136.433 190.351C136.408 190.476 136.193 190.654 136.162 190.624C135.905 190.377 135.67 190.09 135.378 189.755C135.607 189.64 135.799 189.477 136.002 189.468C136.317 189.451 136.519 189.884 136.428 190.351L136.433 190.351ZM150.378 179.215C150.071 179.011 150.255 178.809 150.404 178.648C150.448 178.599 150.569 178.59 150.606 178.633C150.617 178.645 150.62 178.684 150.622 178.71C150.477 179.116 150.403 179.226 150.377 179.208L150.378 179.215ZM150.619 178.613C150.582 178.57 150.565 178.402 150.599 178.341C150.662 178.213 150.767 178.115 150.851 178.011C150.773 178.263 150.711 178.469 150.655 178.629C150.645 178.63 150.63 178.618 150.624 178.612L150.619 178.613ZM150.822 178.597C150.822 178.597 150.767 178.634 150.733 178.636C150.941 178.102 151.024 178.18 151.016 178.2C150.969 178.346 150.906 178.487 150.827 178.597L150.822 178.597ZM154.153 176.317C154.046 176.247 153.934 176.177 153.827 176.107C153.875 176.032 153.932 175.885 153.971 175.895C154.089 175.919 154.198 176.008 154.31 176.071C154.262 176.146 154.214 176.221 154.153 176.317ZM162.492 165.405C162.433 165.338 162.32 165.255 162.326 165.203C162.339 165.046 162.401 164.905 162.443 164.759C162.502 164.826 162.56 164.893 162.635 164.979C162.587 165.119 162.539 165.265 162.492 165.405ZM174.127 152.208C174.063 152.07 173.98 151.934 173.945 151.787C173.931 151.736 174.031 151.638 174.079 151.563C174.147 151.7 174.215 151.832 174.283 151.963L174.127 152.208ZM185.092 131.155C185.054 131.171 184.976 131.034 184.918 130.967C185.019 130.888 185.118 130.783 185.226 130.743C185.264 130.727 185.342 130.864 185.401 130.931C185.3 131.01 185.201 131.115 185.092 131.155ZM186.745 131.694C186.745 131.694 186.625 131.722 186.589 131.693C186.33 131.472 186.274 130.788 186.526 130.659C186.601 130.621 186.79 130.931 186.901 131.053C186.835 131.337 186.8 131.528 186.745 131.7L186.745 131.694ZM188.087 127.816C187.65 127.829 187.559 128.037 187.911 128.517C188.062 128.72 188.116 129.053 188.19 129.333C188.21 129.397 188.13 129.507 188.086 129.627C187.976 129.583 187.861 129.546 187.75 129.49C187.155 129.19 187.269 128.182 186.772 127.778C186.591 127.629 186.578 127.39 186.793 127.341C187.204 127.246 187.47 126.979 187.742 126.589C187.953 126.287 188.443 126.549 188.498 126.948C188.559 127.378 188.561 127.8 188.087 127.816ZM189.699 125.612C189.649 125.661 189.385 125.505 189.381 125.447C189.374 125.162 189.351 124.781 189.474 124.616C189.589 124.458 189.875 124.514 190.083 124.512C190.141 124.507 190.204 124.639 190.342 124.798C190.13 125.073 189.934 125.373 189.699 125.612ZM193.255 116.92C193.217 116.936 193.139 116.799 193.081 116.732C193.181 116.647 193.277 116.561 193.372 116.476C193.442 116.556 193.5 116.623 193.564 116.696C193.463 116.775 193.364 116.88 193.255 116.92ZM198.563 108.857C198.494 108.72 198.426 108.588 198.358 108.457C198.414 108.368 198.462 108.293 198.514 108.212C198.578 108.35 198.661 108.486 198.696 108.633C198.71 108.684 198.61 108.782 198.563 108.857Z" fill="white"/>
</svg>
