<svg width="120" height="41" viewBox="0 0 120 41" fill="none" xmlns="http://www.w3.org/2000/svg">
<g clip-path="url(#clip0_514_5012)">
<rect x="0.435" y="0.435" width="119.13" height="40.13" rx="4.565" fill="black" stroke="#A2A2A1" stroke-width="0.87"/>
<path d="M39.3499 9.5728C39.2853 9.37495 39.2 9.19762 39.0942 9.04087C38.9904 8.88213 38.8659 8.74695 38.721 8.63525C38.5779 8.52354 38.4153 8.43836 38.233 8.37955C38.0508 8.32076 37.851 8.29137 37.6335 8.29137C37.2768 8.29137 36.9526 8.38347 36.6606 8.56762C36.3687 8.75184 36.1364 9.02325 35.9641 9.38176C35.7916 9.74036 35.7054 10.1802 35.7054 10.7015C35.7054 11.2227 35.7926 11.6625 35.967 12.0211C36.1414 12.3797 36.3775 12.651 36.6753 12.8352C36.9731 13.0194 37.3082 13.1115 37.6805 13.1115C38.0253 13.1115 38.329 13.0381 38.5916 12.8911C38.8561 12.7422 39.0619 12.5325 39.2088 12.2621C39.3578 11.9898 39.4322 11.6694 39.4322 11.301L39.6556 11.3481H37.8451V10.7015H40.1376V11.3481C40.1376 11.8438 40.0318 12.2749 39.8201 12.6412C39.6105 13.0077 39.3205 13.2918 38.9502 13.4936C38.5819 13.6935 38.1586 13.7934 37.6805 13.7934C37.1476 13.7934 36.6793 13.668 36.2756 13.4172C35.8739 13.1664 35.5604 12.8098 35.3351 12.3473C35.1117 11.8849 35 11.3363 35 10.7015C35 10.2253 35.0637 9.79717 35.191 9.41702C35.3204 9.03495 35.5026 8.70969 35.7377 8.44125C35.9729 8.17283 36.2511 7.96709 36.5724 7.82405C36.8938 7.68102 37.2475 7.6095 37.6335 7.6095C37.9509 7.6095 38.2467 7.6575 38.5211 7.75352C38.7973 7.84757 39.0433 7.98179 39.2588 8.15618C39.4763 8.3286 39.6576 8.53532 39.8025 8.77636C39.9476 9.01539 40.0475 9.28088 40.1023 9.5728H39.3499ZM41.386 13.7111V7.69179H45.0187V8.3384H42.1149V10.3723H44.8306V11.0189H42.1149V13.0645H45.0658V13.7111H41.386ZM46.0033 8.3384V7.69179H50.5178V8.3384H48.625V13.7111H47.8961V8.3384H46.0033ZM54.6994 7.69179V13.7111H53.9705V7.69179H54.6994ZM55.8317 8.3384V7.69179H60.3462V8.3384H58.4534V13.7111H57.7245V8.3384H55.8317ZM68.8779 10.7015C68.8779 11.3363 68.763 11.8849 68.5341 12.3473C68.3045 12.8098 67.9901 13.1664 67.5904 13.4172C67.1907 13.668 66.7341 13.7934 66.2207 13.7934C65.7074 13.7934 65.2508 13.668 64.8511 13.4172C64.4514 13.1664 64.1369 12.8098 63.9076 12.3473C63.6784 11.8849 63.5638 11.3363 63.5638 10.7015C63.5638 10.0666 63.6784 9.51799 63.9076 9.05554C64.1369 8.5931 64.4514 8.23651 64.8511 7.9857C65.2508 7.7349 65.7074 7.6095 66.2207 7.6095C66.7341 7.6095 67.1907 7.7349 67.5904 7.9857C67.9901 8.23651 68.3045 8.5931 68.5341 9.05554C68.763 9.51799 68.8779 10.0666 68.8779 10.7015ZM68.1727 10.7015C68.1727 10.1802 68.0853 9.74036 67.9107 9.38176C67.7383 9.02325 67.5041 8.75184 67.2083 8.56762C66.9144 8.38347 66.5852 8.29137 66.2207 8.29137C65.8563 8.29137 65.5261 8.38347 65.2303 8.56762C64.9364 8.75184 64.7022 9.02325 64.5279 9.38176C64.3554 9.74036 64.2692 10.1802 64.2692 10.7015C64.2692 11.2227 64.3554 11.6625 64.5279 12.0211C64.7022 12.3797 64.9364 12.651 65.2303 12.8352C65.5261 13.0194 65.8563 13.1115 66.2207 13.1115C66.5852 13.1115 66.9144 13.0194 67.2083 12.8352C67.5041 12.651 67.7383 12.3797 67.9107 12.0211C68.0853 11.6625 68.1727 11.2227 68.1727 10.7015ZM74.8764 7.69179V13.7111H74.1712L70.8912 8.98502H70.8319V13.7111H70.103V7.69179H70.809L74.1008 12.4296H74.1593V7.69179H74.8764Z" fill="white"/>
<path d="M96.2164 29.87H97.95V18.2559H96.2164V29.87ZM111.831 22.4398L109.844 27.4749H109.784L107.721 22.4398H105.854L108.948 29.477L107.183 33.3919H108.991L113.758 22.4398H111.831ZM101.999 28.5509C101.432 28.5509 100.639 28.2667 100.639 27.5646C100.639 26.6682 101.626 26.3245 102.477 26.3245C103.239 26.3245 103.599 26.4886 104.061 26.7128C103.927 27.7888 103 28.5509 101.999 28.5509ZM102.209 22.1857C100.954 22.1857 99.6542 22.7388 99.1163 23.9639L100.655 24.6062C100.984 23.9639 101.595 23.7549 102.238 23.7549C103.135 23.7549 104.047 24.2923 104.061 25.2489V25.3683C103.747 25.189 103.075 24.9202 102.253 24.9202C100.594 24.9202 98.9059 25.8313 98.9059 27.5347C98.9059 29.0887 100.266 30.0899 101.79 30.0899C102.955 30.0899 103.599 29.567 104.001 28.9541H104.061V29.8511H105.736V25.398C105.736 23.3361 104.195 22.1857 102.209 22.1857ZM91.4952 23.8536H89.0301V19.8726H91.4952C92.7912 19.8726 93.5269 20.9454 93.5269 21.8631C93.5269 22.7631 92.7912 23.8536 91.4952 23.8536ZM91.4506 18.2559H87.2972V29.87H89.0301V25.4699H91.4506C93.3723 25.4699 95.2605 24.0793 95.2605 21.8631C95.2605 19.6472 93.3723 18.2559 91.4506 18.2559ZM68.8004 28.5531C67.6027 28.5531 66.6001 27.55 66.6001 26.1736C66.6001 24.7812 67.6027 23.7639 68.8004 23.7639C69.9828 23.7639 70.9102 24.7812 70.9102 26.1736C70.9102 27.55 69.9828 28.5531 68.8004 28.5531ZM70.7911 23.0901H70.7311C70.3417 22.6262 69.5933 22.2071 68.6506 22.2071C66.6746 22.2071 64.864 23.9436 64.864 26.1736C64.864 28.3883 66.6746 30.1095 68.6506 30.1095C69.5933 30.1095 70.3417 29.6903 70.7311 29.2117H70.7911V29.78C70.7911 31.2922 69.9828 32.1 68.6806 32.1C67.618 32.1 66.9596 31.3368 66.69 30.6934L65.1786 31.322C65.6123 32.3693 66.7645 33.6568 68.6806 33.6568C70.7165 33.6568 72.4375 32.4593 72.4375 29.5405V22.4467H70.7911V23.0901ZM73.6352 29.87H75.3709V18.2559H73.6352V29.87ZM77.93 26.0386C77.8854 24.5119 79.1131 23.7338 79.9959 23.7338C80.6843 23.7338 81.2675 24.0782 81.4626 24.5718L77.93 26.0386ZM83.3181 24.7212C82.9885 23.8387 81.9859 22.2071 79.936 22.2071C77.9001 22.2071 76.2091 23.8086 76.2091 26.1583C76.2091 28.3734 77.8854 30.1095 80.1297 30.1095C81.9406 30.1095 82.9885 29.0023 83.4233 28.3585L82.0757 27.4603C81.627 28.119 81.0132 28.5531 80.1297 28.5531C79.2476 28.5531 78.6184 28.1488 78.215 27.3555L83.4978 25.1705L83.3181 24.7212ZM41.2266 23.4195V25.0957H45.2376C45.1178 26.0386 44.8035 26.727 44.3246 27.2059C43.7407 27.7895 42.8276 28.4333 41.2266 28.4333C38.757 28.4333 36.8264 26.4428 36.8264 23.9733C36.8264 21.5038 38.757 19.513 41.2266 19.513C42.5587 19.513 43.5312 20.037 44.2497 20.7105L45.4325 19.5279C44.4294 18.5702 43.0976 17.8368 41.2266 17.8368C37.8436 17.8368 35 20.5908 35 23.9733C35 27.3555 37.8436 30.1095 41.2266 30.1095C43.0523 30.1095 44.4294 29.5107 45.5069 28.3883C46.6144 27.2808 46.9589 25.7243 46.9589 24.4669C46.9589 24.0782 46.9286 23.719 46.8688 23.4195H41.2266ZM51.519 28.5531C50.3214 28.5531 49.2886 27.5652 49.2886 26.1583C49.2886 24.7365 50.3214 23.7639 51.519 23.7639C52.7161 23.7639 53.7489 24.7365 53.7489 26.1583C53.7489 27.5652 52.7161 28.5531 51.519 28.5531ZM51.519 22.2071C49.3332 22.2071 47.5525 23.8684 47.5525 26.1583C47.5525 28.4333 49.3332 30.1095 51.519 30.1095C53.7039 30.1095 55.485 28.4333 55.485 26.1583C55.485 23.8684 53.7039 22.2071 51.519 22.2071ZM60.1706 28.5531C58.9739 28.5531 57.9407 27.5652 57.9407 26.1583C57.9407 24.7365 58.9739 23.7639 60.1706 23.7639C61.3682 23.7639 62.4007 24.7365 62.4007 26.1583C62.4007 27.5652 61.3682 28.5531 60.1706 28.5531ZM60.1706 22.2071C57.9857 22.2071 56.205 23.8684 56.205 26.1583C56.205 28.4333 57.9857 30.1095 60.1706 30.1095C62.3564 30.1095 64.1371 28.4333 64.1371 26.1583C64.1371 23.8684 62.3564 22.2071 60.1706 22.2071Z" fill="white"/>
<path d="M18.1283 20.1844L7.61328 31.3449C7.61365 31.3473 7.61447 31.3492 7.61484 31.3515C7.93736 32.5633 9.04417 33.4556 10.3579 33.4556C10.883 33.4556 11.376 33.3137 11.7988 33.0644L11.8325 33.0447L23.6685 26.215L18.1283 20.1844Z" fill="#EB3131"/>
<path d="M28.7666 18.284L28.7565 18.2771L23.6466 15.3148L17.8896 20.4376L23.6667 26.2138L28.7496 23.281C29.6408 22.7999 30.2457 21.8604 30.2457 20.777C30.2457 19.7015 29.6489 18.7667 28.7666 18.284Z" fill="#F6B60B"/>
<path d="M7.61305 10.1627C7.54979 10.3958 7.5166 10.64 7.5166 10.8935V30.6146C7.5166 30.8677 7.54942 31.1126 7.61342 31.3449L18.4904 20.4699L7.61305 10.1627Z" fill="#5778C5"/>
<path d="M18.2062 20.7539L23.6488 15.3129L11.8262 8.45841C11.3965 8.20103 10.8949 8.05249 10.3582 8.05249C9.04454 8.05249 7.93624 8.94641 7.61365 10.1597L7.61328 10.1628L18.2062 20.7539Z" fill="#3BAD49"/>
</g>
<defs>
<clipPath id="clip0_514_5012">
<rect width="120" height="41" fill="white"/>
</clipPath>
</defs>
</svg>
